<svg xmlns="http://www.w3.org/2000/svg" viewBox="0 0 1500 1500"><defs><style>.cls-1{fill:#ed1c24;}.cls-2{fill:#fff;}</style></defs><title>Circle white R</title><g id="Layer_3" data-name="Layer 3"><circle class="cls-1" cx="750" cy="750" r="750"/></g><g id="Layer_1" data-name="Layer 1"><path class="cls-2" d="M1167.25,1188.19a185.72,185.72,0,0,1-92.6-160.41V842.59c0-102.26-82.92-185.18-185.18-185.18,102.74,0,186-83.7,185.18-186.62C1073.87,368.69,989.24,287,887.14,287H310.77a92.6,92.6,0,0,1,92.59,92.59v740.74A92.6,92.6,0,0,1,310.77,1213H681.14a92.6,92.6,0,0,1-92.6-92.59V904.58a36.54,36.54,0,0,1,41.68-36.1c71,9.86,120.36,46.51,120.36,113V726.85c0,66.49-49.37,103.14-120.36,113a36.53,36.53,0,0,1-41.68-36.09v-401h0a92.59,92.59,0,0,1,92.6-92.59h33.07a175.39,175.39,0,0,1,119.11,46.29,172.41,172.41,0,0,1,0,254.63,175,175,0,0,1-106.25,45.81c-4.24.33-8.54.49-12.86.49h-9.93A189.44,189.44,0,0,1,728.62,659v0A185.1,185.1,0,0,1,889.47,842.59v185.19c0,102.27,82.91,185.18,185.18,185.18h185.19A184.49,184.49,0,0,1,1167.25,1188.19Z"/></g></svg>