<svg xmlns="http://www.w3.org/2000/svg" xmlns:xlink="http://www.w3.org/1999/xlink" viewBox="0 0 448 336"><defs><style>.cls-1{fill:none;}.cls-2{fill:#1759a6;}.cls-3{clip-path:url(#clip-path);}.cls-4{fill:#fff;}</style><clipPath id="clip-path"><rect class="cls-1" x="109.43" y="117.4" width="229.15" height="101.21"/></clipPath></defs><title>Apogee-w-thumbnail-reverse-small</title><g id="back"><rect class="cls-2" width="448" height="336" rx="28.35"/></g><g id="logo"><g id="Artwork_6" data-name="Artwork 6"><g class="cls-3"><g class="cls-3"><path class="cls-4" d="M203.46,140.79c10.93,0,13,4.82,11.2,15.1-1.64,9.54-5.95,13.29-15.5,13.29h-2l-4.46,26H187.6l9.33-54.42Zm-2.2,23.74c6.37,0,7.54-4.48,8.43-9.62,1-5.71.47-9.47-6.05-9.47h-2.45l-3.27,19.09Z"/><path class="cls-4" d="M226.39,195.94c-12.73,0-10.23-18.84-8.68-27.9s5.61-28,18.18-28c12.81,0,10.19,18.6,8.62,27.74s-5.15,28.14-18.12,28.14m8.74-51c-8.48,0-11.27,17.22-12.26,23s-4,23.09,4.36,23.09c6.12,0,8.63-8,9.84-12.65,1.1-4.08,1.9-8.24,2.61-12.4.95-5.55,3.53-21.05-4.55-21.05"/><path class="cls-4" d="M273.37,177.42a54.89,54.89,0,0,1-1.76,7.92c-2,6.2-6.39,10.6-13,10.6-4.08,0-7.05-1.71-8.49-5.22-2.18-5.38-.3-17.78.78-24.07,1.59-9.3,4.8-26.59,17.77-26.59,6.69,0,8.71,4.4,9.25,10.28l-5.31,2c-.06-3.43-.62-7.35-4.78-7.35-8,0-10.52,14.28-11.47,19.83-1,5.71-2.78,15.74-1.88,21,.53,3.1,1.78,5.31,5.29,5.31,6,0,7.38-6.86,8.13-11.26l1.48-8.65H262l.8-4.65h12.48Z"/><path class="cls-4" d="M305.24,169.51H288.76l.8-4.65H301l1.48-8.65c.76-4.4,1.69-11.26-4.27-11.26-3.51,0-5.52,2.21-7.11,5.31-2.69,5.22-4.33,15.25-5.3,21-1,5.55-3.32,19.83,4.67,19.83,4.16,0,6.06-3.92,7.3-7.35l4.64,2c-2.56,5.88-6.09,10.28-12.78,10.28-13,0-10.25-17.29-8.65-26.59,1.07-6.29,3.44-18.69,7.47-24.07a12.4,12.4,0,0,1,10.27-5.22c6.61,0,9.45,4.4,9.36,10.6a52.18,52.18,0,0,1-.95,7.92Z"/><path class="cls-4" d="M335.75,169.51H319.27l.8-4.65h11.42l1.48-8.65c.76-4.4,1.69-11.26-4.27-11.26-3.51,0-5.52,2.21-7.11,5.31-2.69,5.22-4.33,15.25-5.3,21-1,5.55-3.32,19.83,4.67,19.83,4.16,0,6.06-3.92,7.3-7.35l4.64,2c-2.56,5.88-6.09,10.28-12.77,10.28-13,0-10.26-17.29-8.66-26.59,1.07-6.29,3.44-18.69,7.47-24.07a12.4,12.4,0,0,1,10.27-5.22c6.61,0,9.45,4.4,9.36,10.6a52.18,52.18,0,0,1-.95,7.92Z"/><polygon class="cls-4" points="156.69 195.21 176.78 140.79 181.51 140.79 183.04 195.21 177.65 195.21 177.53 184.03 169.12 184.03 170.6 179.63 177.47 179.63 177.02 150.76 162.07 195.21 156.69 195.21"/><path class="cls-4" d="M150.93,169.74c-3-9.47-7.72-15-13.31-14.44-11,1.2-21.33,25.89-23.08,55.16-.17,2.78-.25,5.5-.25,8.14-5.05-8.67-6.44-26.86-2.86-47.89,5-29.44,17.88-53.31,28.74-53.31s15.5,23.34,10.76,52.34"/></g></g></g></g></svg>