<svg xmlns="http://www.w3.org/2000/svg" xmlns:xlink="http://www.w3.org/1999/xlink" viewBox="0 0 448 336"><defs><style>.cls-1{fill:none;}.cls-2{fill:#52ad6f;}.cls-3{clip-path:url(#clip-path);}.cls-4{fill:#fff;}</style><clipPath id="clip-path"><rect class="cls-1" x="105.96" y="101.27" width="236.28" height="133.47"/></clipPath></defs><title>Autos-w-thumbnail-reverse-small</title><g id="back"><rect class="cls-2" width="448" height="336" rx="28.35"/></g><g id="logo"><g id="Auto"><g class="cls-3"><g class="cls-3"><path class="cls-4" d="M327.51,205.27H307a5.8,5.8,0,0,1,0-11.59h30.79a4.47,4.47,0,1,0,0-8.94H307a14.74,14.74,0,0,0,0,29.47h20.53a5.79,5.79,0,1,1,0,11.58H296.72a4.47,4.47,0,0,0,0,8.94h30.79a14.73,14.73,0,1,0,0-29.46"/><path class="cls-4" d="M207.49,184.74a4.48,4.48,0,0,0-4.48,4.47v20.53a16,16,0,1,1-32.1,0V189.21a4.48,4.48,0,0,0-8.95,0v20.53a25,25,0,0,0,50,0V189.21a4.47,4.47,0,0,0-4.47-4.47"/><path class="cls-4" d="M240.85,189.21a4.47,4.47,0,0,0-4.47-4.47h-7.84V173.91a4.47,4.47,0,0,0-8.94,0v56.35a4.47,4.47,0,0,0,8.94,0V193.68h7.84a4.47,4.47,0,0,0,4.47-4.47"/><path class="cls-4" d="M263.42,184.74a25,25,0,1,0,25,25,25,25,0,0,0-25-25m0,41a16.06,16.06,0,1,1,16.05-16,16.07,16.07,0,0,1-16.05,16"/><path class="cls-4" d="M131,184.74a25,25,0,1,0,16,44.14v1.38a4.47,4.47,0,1,0,8.94,0V209.74a25,25,0,0,0-25-25m0,41a16.06,16.06,0,1,1,16-16,16.08,16.08,0,0,1-16,16"/><path class="cls-4" d="M265.17,134.67a41.94,41.94,0,0,0-82.13,0,7.18,7.18,0,0,0,3.77,7.87c1.27.64,2.55,1.25,3.85,1.83a2.38,2.38,0,0,0,3.1-1.16,33.61,33.61,0,0,1,60.68,0,2.39,2.39,0,0,0,3.11,1.16q1.95-.87,3.84-1.83a7.2,7.2,0,0,0,3.78-7.87"/><path class="cls-4" d="M224.1,131.37A26.29,26.29,0,0,0,201,145.17a2.37,2.37,0,0,0,1.45,3.4c2,.53,3.92,1,5.92,1.39a9,9,0,0,0,6.31-1.14,18.57,18.57,0,0,1,18.92,0,9.06,9.06,0,0,0,6.31,1.14c2-.39,4-.86,5.92-1.39a2.37,2.37,0,0,0,1.45-3.4,26.27,26.27,0,0,0-23.14-13.8"/></g></g></g></g></svg>