<svg id="Layer_1" data-name="Layer 1" xmlns="http://www.w3.org/2000/svg" viewBox="0 0 517.76 388.32"><defs><style>.cls-1{fill:#b11f30;}.cls-2{fill:none;stroke:#fff;stroke-linecap:round;stroke-linejoin:round;stroke-width:9.48px;}</style></defs><title>Artboard 1</title><g id="back"><rect class="cls-1" y="-0.03" width="517.76" height="388.32" rx="32.76"/></g><path class="cls-2" d="M192.67,109l3.79,133c.13,4.63,3.77,8.68,8.41,8.68,46.23,0,46.23,33.68,46.23,33.68a3.71,3.71,0,1,0,7.4,0v-31"/><path class="cls-2" d="M320.3,238.31,324.24,109a9,9,0,0,0-9.79-9.19c-18.49,1.77-55.95,9-55.95,38v39.84"/><path class="cls-2" d="M300.55,174.44V145.52s0-11.57-23.14-11.57"/><line class="cls-2" x1="280.63" y1="151.3" x2="280.63" y2="174.44"/><line class="cls-2" x1="300.55" y1="195.16" x2="277.41" y2="195.16"/><line class="cls-2" x1="294.77" y1="195.16" x2="294.77" y2="235.65"/><path class="cls-2" d="M239.72,135.88V164.8s0,11.57-23.13,11.57"/><line class="cls-2" x1="224.94" y1="135.88" x2="224.94" y2="170.58"/><path class="cls-2" d="M222.37,203.32v20.76s0,11.57-11.57,11.57"/><path class="cls-2" d="M239.72,235.65V206.73s0-11.57-23.13-11.57"/><line class="cls-2" x1="258.5" y1="195.16" x2="258.5" y2="235.65"/></svg>