<svg id="Layer_1" data-name="Layer 1" xmlns="http://www.w3.org/2000/svg" viewBox="0 0 517.76 388.32"><defs><style>.cls-1{fill:#85c77e;}.cls-2{fill:#fff;}</style></defs><title>Artboard 15</title><g id="back"><rect class="cls-1" x="0.08" y="-0.08" width="517.76" height="388.32" rx="32.76"/></g><g id="Artwork_1" data-name="Artwork 1"><path class="cls-2" d="M272.77,154.53c-.43-1.13-.87-2.27-1.32-3.41-.62.24-1.23.48-1.83.73-1.4.58-2.76,1.2-4,1.84l-.49.21c-17.79,6.15-34.15,18.67-46.27,35.37l32,76.93,9.21,22.11c.81-.44,1.6-.9,2.38-1.41l.12-.08c.89-.58,1.75-1.22,2.59-1.89.28-.22.54-.46.81-.69.56-.47,1.12-.95,1.66-1.45.31-.29.61-.6.91-.9.48-.49,1-1,1.44-1.51l.88-1q.69-.83,1.35-1.68c.27-.35.55-.7.81-1.06.47-.64.92-1.31,1.36-2,.22-.33.44-.64.65-1,.64-1,1.27-2.09,1.86-3.19s1.23-2.37,1.77-3.56c4.54-9.9,7.16-22,7.79-35.84,1.07-23.63-3.67-50.09-13.71-76.54"/><path class="cls-2" d="M211.63,192.27h0c-21.31-3.3-42.48-.12-59.82,9a5.05,5.05,0,0,0-2.62,5.34l.06.24a4.45,4.45,0,0,0,.24.76l36.84,88.42a4.87,4.87,0,0,0,2.84,2.73,5.1,5.1,0,0,0,4.08-.25,97.23,97.23,0,0,1,29.44-9.28,110,110,0,0,1,29.15-.46L243,267.66Z"/><path class="cls-2" d="M349.74,184.84a60.88,60.88,0,0,0-70.81-36c.38,1,.77,2,1.14,3,10.41,27.42,15.33,55,14.2,79.65-.67,14.89-3.53,27.93-8.48,38.75-.62,1.34-1.29,2.68-2,4-.52.95-1.05,1.88-1.6,2.78l-.39.64c-.54.89-1.1,1.75-1.68,2.59l-.05.07L316.75,265a61.35,61.35,0,0,0,33-80.13"/><path class="cls-2" d="M280.17,140.58a26.33,26.33,0,0,0,18.37-.7c.21-.09.4-.2.6-.29a26.42,26.42,0,1,0-19,1"/></g></svg>