<svg id="Layer_1" data-name="Layer 1" xmlns="http://www.w3.org/2000/svg" viewBox="0 0 517.76 388.32"><defs><style>.cls-1{fill:#0050a0;}.cls-2{fill:#fff;}</style></defs><title>Artboard 14</title><g id="back"><rect class="cls-1" width="517.76" height="388.32" rx="32.76"/></g><g id="Artwork_13" data-name="Artwork 13"><path class="cls-2" d="M318,239.32V130.21H300.06c0-.37.06-.73.08-1.1s0-.52,0-.78,0-.56,0-.84,0-.28,0-.43,0-.11,0-.16v-.07c0-.57,0-1.13-.06-1.7,0-.14,0-.28,0-.43s-.05-.41-.07-.62c-.05-.57-.12-1.13-.2-1.7-.05-.42-.11-.84-.18-1.25-.15-.89-.33-1.77-.55-2.65,0,0,0,0,0,0v0c0-.15-.11-.29-.16-.43a5.49,5.49,0,0,0-.2-.57l-.16-.3c-.12-.23-.26-.47-.41-.7,0,0-.06-.11-.1-.16a1.58,1.58,0,0,1-.12-.15c-.18-.23-.37-.45-.58-.67a2,2,0,0,0-.19-.22,11.48,11.48,0,0,0-1-.86,13.7,13.7,0,0,0-1.54-1c-.29-.17-.58-.34-.9-.5l-.16-.08-.56-.27-.81-.34-.21-.09a1.27,1.27,0,0,1-.18-.06c-.58-.22-1.17-.42-1.81-.61l-.46-.11-.38-.09-.47-.12a30,30,0,0,0-3-.52l-.66-.06c-.92-.09-1.85-.13-2.77-.13-.39,0-.78,0-1.17,0a28.53,28.53,0,0,0-4,.44l-.9.19c-3.37-9.11-10.58-10.51-18.93-10.51s-15.48,1.39-18.88,10.35l-.67-.14a26.59,26.59,0,0,0-4.38-.51c-.38,0-.75,0-1.13,0a27.83,27.83,0,0,0-2.89.16l-.42,0a26.94,26.94,0,0,0-3.23.57l-.45.1-.27.07-.28.07a20.45,20.45,0,0,0-2,.66l-.32.12-.3.12-.36.15-.3.12-.17.09-.54.27-.09,0c-.33.17-.63.35-.94.54a13.41,13.41,0,0,0-1.46,1,10.52,10.52,0,0,0-.84.77c-.14.14-.26.28-.38.42s-.31.37-.45.56-.1.11-.14.17l-.08.13c-.15.24-.29.47-.41.71,0,.07-.08.14-.11.21a4.93,4.93,0,0,0-.24.64,3.4,3.4,0,0,0-.12.34c-.24.91-.43,1.83-.59,2.75-.08.45-.14.91-.2,1.37s-.14,1.1-.19,1.65c0,.22-.06.44-.08.66s0,.32,0,.48c0,.51-.05,1-.05,1.55,0,.06,0,.11,0,.17v.16h0v.19c0,.62,0,1.24.06,1.85,0,.37.06.73.1,1.1h-18v123.9c0,.51,0,1,.06,1.52s.1,1,.18,1.51a20.53,20.53,0,0,0,.48,2.17,20,20,0,0,0,.72,2.1c.15.37.31.73.48,1.1a22.28,22.28,0,0,0,1.81,3.13,25.19,25.19,0,0,0,2.57,3.12q.72.75,1.5,1.44l.8.69.84.66c.71.54,1.46,1.07,2.24,1.56s1.6,1,2.44,1.4a35.29,35.29,0,0,0,5.37,2.26,39.9,39.9,0,0,0,6,1.47,41.64,41.64,0,0,0,6.68.53,52.26,52.26,0,0,1,9.57.89c.7.13,1.38.27,2.07.42s1.36.33,2,.51l.88.26.89.26,1.63.55c.54.19,1.07.4,1.6.61.72.29,1.42.59,2.11.91s1.39.66,2.06,1c1,.53,2,1.1,2.95,1.7s1.87,1.24,2.75,1.91a39.47,39.47,0,0,1,5.69-3.61c.68-.36,1.37-.69,2.07-1s1.3-.58,2-.85,1.1-.43,1.67-.63,1.12-.4,1.69-.58,1.28-.38,1.93-.56,1.3-.34,2-.49l2-.41.5-.08,1-.17.12,0h.09l.9-.13.24,0h.06l.82-.1h0l.36,0,.76-.08.47,0,.68-.05.56,0,.61,0,.68,0,.5,0h1.21c.62,0,1.23,0,1.85,0l.36,0c.51,0,1-.05,1.5-.1h.09l.63-.07.84-.09q.8-.1,1.59-.24h0a38.37,38.37,0,0,0,5.73-1.4c.43-.14.85-.28,1.26-.43s.83-.31,1.23-.48c.81-.33,1.6-.68,2.36-1.06a33.75,33.75,0,0,0,3.29-1.86l1-.69,1-.72a27.9,27.9,0,0,0,2.7-2.35c.56-.55,1.09-1.12,1.58-1.7s1-1.19,1.4-1.81a22.57,22.57,0,0,0,2.41-4.48q.19-.5.36-1c.17-.5.31-1,.44-1.52s.22-1,.31-1.56a19.18,19.18,0,0,0,.25-3Zm-56.17,30.25c-.86.35-1.72.73-2.56,1.11-.68.31-1.36.64-2,1q-1-.5-2-1h0l-.15-.06-1.19-.54-.4-.16-1-.42h0l-.58-.23-.43-.17-.78-.29-.27-.09-.84-.3-.22-.07-1-.34-.06,0h0l-.35-.11-.81-.24-.41-.12-.73-.2h0l-.59-.15-.67-.18-.77-.18-.52-.13-1.07-.23-.23-.05-1.31-.26-1.54-.26c-1-.16-1.93-.29-2.89-.41-.6-.06-1.19-.13-1.79-.18-.95-.09-1.91-.15-2.86-.2l-1.55,0-1.47,0-1.14,0c-.82,0-1.63-.1-2.42-.2l-.93-.13h0a25.08,25.08,0,0,1-3.89-.94h0a21.17,21.17,0,0,1-2.45-1l-.77-.37a19.3,19.3,0,0,1-2.76-1.73,14.18,14.18,0,0,1-1.51-1.33s0,0,0,0a11.17,11.17,0,0,1-1.2-1.44v0l0,0,0-.07a8.14,8.14,0,0,1-.8-1.47c0-.07,0-.13-.07-.2s-.11-.29-.15-.44a1.16,1.16,0,0,0,0-.18c0-.16-.08-.32-.11-.49h0l0-.32s0-.06,0-.09,0-.28,0-.42V229.54l33.28,7.37,12.74,2.82,43.2,9.57,4.79,1.06v3.87a4.8,4.8,0,0,1-.05.52.88.88,0,0,1,0,.16V255a4.53,4.53,0,0,1-.13.64,5.8,5.8,0,0,1-.19.59l-.09.2-.09.21c0,.06-.06.11-.08.16s-.09.17-.13.26l-.1.16-.14.25-.11.16-.16.26h0l-.2.28-.14.18-.21.25a1.63,1.63,0,0,1-.17.2,2.09,2.09,0,0,1-.2.22l-.21.23-.19.18a3,3,0,0,1-.25.25l-.16.15-.31.27-.11.1-.38.31-.14.1-.39.3a.71.71,0,0,0-.14.1l-.41.28-.1.06c-.34.23-.7.45-1.07.66l-.11.06-.51.28-.16.08-.49.24-.08,0-.58.27-.24.1-.44.18-.47.18c-.31.12-.62.23-.94.33h0l-.5.15a24.27,24.27,0,0,1-2.94.7l-.26.05h-.06c-.34.06-.68.11-1,.15l-.54.06-.48.05-1.07.07h-.2c-.42,0-.83,0-1.26,0l-1.47,0-.53,0h-.39l-.54,0-.67,0-.19,0-.61,0-.74.06c-.24,0-.48,0-.72.06l-.8.08-.65.06-.87.11-.56.07-1,.13-.46.07-1.06.18-.72.12-.13,0h0l-.6.12-.23.05c-1.46.29-2.83.61-4.16,1h-.05c-.77.21-1.56.44-2.35.69l-.07,0-.07,0-.77.26q-1.89.63-3.54,1.29M228.21,129.43v0c0-.11,0-.22,0-.31s0-.34,0-.51l0-.31c0-.32,0-.68,0-1.11v0a2.53,2.53,0,0,1,0-.28c0-.29,0-.65,0-.94a.81.81,0,0,0,0-.16c0-.15,0-.33,0-.52s.06-.53.09-.78h.05l.12,0,.22,0,.19-.05a15,15,0,0,1,1.58-.28h0l.23,0c.59-.06,1.07-.09,1.46-.09h.65a13.8,13.8,0,0,1,2.21.26l.16,0,.26.06L247,126.86l4.21-11.12a4.5,4.5,0,0,1,.43-.89c.36-.16,1.67-.58,5.59-.58s5.23.42,5.59.58a4.9,4.9,0,0,1,.44,1L267.42,127l11.63-2.47.08,0,.47-.1a13.81,13.81,0,0,1,2.07-.22l.39,0h.28a14.08,14.08,0,0,1,1.45.07h.09l.26,0a12.71,12.71,0,0,1,1.5.26l.09,0,.2.05.22,0h0l.11,0c0,.24.06.45.07.63s0,.36,0,.5,0,.1,0,.15c0,.34,0,.72,0,1v.39c0,.14,0,.28,0,.43v.07c0,.18,0,.37,0,.55v0c0,.6-.11,1.2-.2,1.8A23.16,23.16,0,0,1,278.47,144a29.41,29.41,0,0,1-4.45,3.28l-.38.23a31.8,31.8,0,0,1-4.64,2.2h0l-.51.18-.19.07-.76.27-.93.27-.17,0c-.83.24-1.5.41-2.11.53l-.16,0h0l-.34.06c-.64.13-1.14.22-1.6.28a33,33,0,0,1-9.86,0c-.45-.06-1-.15-1.61-.28l-.34-.06h0l-.15,0c-.61-.13-1.29-.3-2.12-.54l-.17,0-.93-.27-.76-.27-.19-.07-.51-.18h0a30.83,30.83,0,0,1-4.38-2l-.15-.09-.49-.3a29.32,29.32,0,0,1-4.43-3.27,23.75,23.75,0,0,1-7.55-12.74v-.15c-.07-.31-.12-.6-.16-.86s-.09-.54-.11-.78m35.92,98v-7.63l5.22-5.22,13.3-13.31,21.61,21.61v13.44Zm-53.88-22.08,15.22-15.21,24.43,24.44.48.48v9.32l-40.13-8.88Zm94-61.35V203.4l-21.61-21.61-18.52,18.52V165h.05c.77-.11,1.53-.25,2.29-.4l.66-.13c1-.22,2-.47,3-.75.53-.14,1.06-.29,1.59-.46s.95-.33,1.43-.5l.62-.22a45.45,45.45,0,0,0,7-3.33l.35-.22A40.39,40.39,0,0,0,295.82,144Zm-94,0h8.46a40.23,40.23,0,0,0,14.7,15c.29.18.57.37.87.54a44.67,44.67,0,0,0,6.49,3l.62.22c.47.17.94.35,1.43.5s1.05.32,1.59.46q1.47.42,3,.75l.67.13c.76.15,1.52.29,2.3.4h0v30.54l-24.91-24.92-15.22,15.22Z"/></g></svg>