<svg xmlns="http://www.w3.org/2000/svg" viewBox="0 0 448 336"><defs><style>.cls-1{fill:#333;}.cls-2{fill:#fff;}</style></defs><title>Len&amp;apos;s-bread-w-thumbnail-reverse-small</title><g id="back"><rect class="cls-1" width="448" height="336" rx="28.35"/></g><g id="logo"><g id="Len_s_bread" data-name="Len&apos;s bread"><path class="cls-2" d="M159.45,217.53a10.13,10.13,0,0,1,.19,2,41.85,41.85,0,0,1-.84,8c-.65,3.19-1.53,5.35-2.61,6.44a19.91,19.91,0,0,1-4.08,2.72c-1,.58-2.16,1.24-3.41,2a4.06,4.06,0,0,0-1.3,1.21l-.18.24-.3.38-.12.56,1.52.34a5.56,5.56,0,0,1,1.74-1.69c3.38-2.13,6-3.26,7.31-4.61,2-2,3.15-9.16,3.15-13.72A6.23,6.23,0,0,0,159.45,217.53Z"/><path class="cls-2" d="M183.43,222.12c-.23-.58-.92-.94-2.89-.94h-9.22l-.66,0c.32.7,1.14.93,2.61.93h9.22C182.82,222.09,183.14,222.1,183.43,222.12Z"/><path class="cls-2" d="M172.69,207.91c-.16,1.4-.28,3.19-.28,4.36,0,.08,0,.22,0,.34a4.49,4.49,0,0,0,.65,0h.3c0-.95.13-2,.23-2.92.17-1.13.34-1.86,1.63-1.91l.79-6h-1.15l-.55,4.15-.12.86-.86,0C172.85,206.92,172.84,206.92,172.69,207.91Z"/><path class="cls-2" d="M188.29,220.76a43.11,43.11,0,0,1-.8,6.72c-.66,3.19-1.53,5.36-2.62,6.44a19.41,19.41,0,0,1-4.07,2.72c-1,.58-2.16,1.24-3.41,2a4.06,4.06,0,0,0-1.3,1.21l-.18.24-.26.32-.14.65,1.52.34a5.51,5.51,0,0,1,1.75-1.69c3.37-2.14,5.95-3.26,7.3-4.61,2-2,3.15-9.16,3.15-13.72,0-.11,0-.21,0-.32-.16,0-.31-.07-.45-.12A3.48,3.48,0,0,1,188.29,220.76Z"/><path class="cls-2" d="M169.25,206.08h.27l-.09,1.23-.86,10.75c-.1,1.39.47,1.92,1.94,2,.24,0,.51,0,.81,0h9.22c2.26,0,3.7.44,4,2.13a3.58,3.58,0,0,1,.06.68,7.21,7.21,0,0,1-1.24,4.6c-1.74,1.41-3.54,2.2-7.75,4.45a2.32,2.32,0,0,0-.85,1.62l-1.18,5.52,1.52.33a5.93,5.93,0,0,1,1-1.15,5.18,5.18,0,0,1,.72-.53c3.37-2.14,6-3.26,7.31-4.61,2-2,3.11-8.9,3.15-13.47v-.25a9,9,0,0,0-.22-2,5.9,5.9,0,0,0-.4-1.12c-.87-1.78-2.67-2.63-5.45-2.63h-8.15c-1.63,0-1.69-.34-1.69-1.41a44.24,44.24,0,0,1,.28-4.49c.17-1.13.34-1.86,1.63-1.92l.53-4,.26-1.93h-1.86c-1.85,0-2.47-.4-2.47-1.63l-1.8-.12-.62,5.68C167.12,205.59,167.76,206,169.25,206.08Z"/><path class="cls-2" d="M151.19,250.92a3,3,0,0,1-2.73,2.74,2,2,0,0,0,3.65-1A1.87,1.87,0,0,0,151.19,250.92Z"/><path class="cls-2" d="M148.58,247.69a2,2,0,0,0,.22-.92,1.9,1.9,0,0,0-.92-1.7,3,3,0,0,1-2.73,2.74,1.84,1.84,0,0,0,.87.76,3,3,0,0,1,2.18-.9Z"/><path class="cls-2" d="M154.51,245.07a3,3,0,0,1-2.73,2.74,2,2,0,0,0,3.65-1A1.9,1.9,0,0,0,154.51,245.07Z"/><path class="cls-2" d="M151.5,246.79h0a1.92,1.92,0,0,0,2-2v0a2,2,0,0,0-3.94,0A1.92,1.92,0,0,0,151.5,246.79Z"/><path class="cls-2" d="M146.85,244.82v0a2,2,0,0,0-3.93,0,1.92,1.92,0,0,0,1.94,2h0A1.92,1.92,0,0,0,146.85,244.82Z"/><path class="cls-2" d="M150.17,250.67v0a2,2,0,0,0-3.94,0,1.93,1.93,0,0,0,2,2h0A1.92,1.92,0,0,0,150.17,250.67Z"/><path class="cls-2" d="M155.85,222.28a4.65,4.65,0,0,1,.06.68,7.28,7.28,0,0,1-1.24,4.6c-1.74,1.41-3.54,2.2-7.76,4.45a2.31,2.31,0,0,0-.84,1.62l-1.18,5.52,1.51.33a6.68,6.68,0,0,1,1-1.15,4.78,4.78,0,0,1,.73-.53c3.37-2.14,6-3.26,7.3-4.61,2-2,3.11-8.9,3.15-13.47v-.25a8.45,8.45,0,0,0-.22-2,5.28,5.28,0,0,0-.4-1.12c-.87-1.78-2.67-2.63-5.45-2.63h-8.15c-1.63,0-1.69-.34-1.69-1.41a44.44,44.44,0,0,1,.29-4.49c.16-1.13.33-1.86,1.62-1.92l.53-4,.26-1.93h-1.85c-1.86,0-2.48-.4-2.48-1.63l-1.8-.12-.61,5.68c-.22,1.75.42,2.2,1.91,2.24h.28l-.1,1.23-.86,10.75c-.1,1.39.47,1.92,1.94,2,.25,0,.52,0,.82,0h9.22C154.11,220.15,155.56,220.59,155.85,222.28Z"/><path class="cls-2" d="M140.32,220.85a2.46,2.46,0,0,1-.83-.57,1.73,1.73,0,0,1-.17-.21l-.2,1.76,1.29,25.33.05.93-.93.15-2.27.34v1.17l4-.62L140,223.72Z"/><path class="cls-2" d="M132.57,221.21l-.75,0c.36.73,1.25.91,2.67.91h.08a1.28,1.28,0,0,0-.2-.62C134.11,221.21,133,221.21,132.57,221.21Z"/><path class="cls-2" d="M144,207.94a43.68,43.68,0,0,0-.27,4.36v.34a4.68,4.68,0,0,0,.65,0h.27c0-1,.14-2,.24-2.95.17-1.12.34-1.85,1.63-1.91l.79-6h-1.13l-.55,4.18-.11.86-.87,0C144.16,207,144.15,207,144,207.94Z"/><path class="cls-2" d="M197.23,221.92l.49-3.39.32-2.27v-.14l.06-.5H197l0,.15-.62,4.38v.06l-.06.38-.36.26,0,0-.1.08a3.44,3.44,0,0,0-.82,1.44c-.06.21-.12.43-.17.66v.06c0,.22-.08.46-.11.7v0c0,.15,0,.3,0,.46v.1c0,.16,0,.32,0,.48a2.53,2.53,0,0,0,0,.38v0a3.53,3.53,0,0,0,.06.42v.05c0,.15.06.31.1.48v.06q.08.26.15.54v0l.2.61h0a21,21,0,0,0,.91,2.18h0a11.64,11.64,0,0,1-.56-2.27,4.59,4.59,0,0,1,0-.62C195.49,224.73,196.05,222.76,197.23,221.92Z"/><path class="cls-2" d="M211.45,238.05c3.38-1.46,8.77-14.89,8.77-20.51,0-1-.14-1.5-.88-1.74h0a18.84,18.84,0,0,1-.41,3.23c0,.22-.09.45-.14.69a49.38,49.38,0,0,1-2.65,8.12c0,.08-.07.17-.11.26l0,.06c-.14.34-.29.68-.44,1v0c-.08.16-.15.32-.22.47s-.13.27-.19.4a2.59,2.59,0,0,1-.14.29,26.47,26.47,0,0,1-2.66,4.55h0l-.35.43-.18.21-.15.17a6.27,6.27,0,0,1-.69.68l-.15.13-.19.14-.26.17-.06,0a3.2,3.2,0,0,1-.36.19h0l-.67.28,0,0a50.75,50.75,0,0,1-7.58,2.17l-.08,0-.77.16-.29.06-.54.11-.49.09-.33.06-.65.12-.15,0-.75.13h0l-.78.12h0c.17.36.34.71.53,1.08C201.78,240.92,207.86,239.63,211.45,238.05Z"/><path class="cls-2" d="M206.19,221H206c-1,.11-1.67.4-2.68,2.62l-.08.17-.06.14-.22.51-.12.31,0,0-.18.46c0,.09-.07.17-.1.27l-.06.16c-.56,1.47-1.24,3.42-2.1,6l.85-.18.74-.17c3-8.89,3.66-9.28,6.27-9.48l.9-6.24H208l-.64,4.47-.11.71v.12l-.83.06Z"/><path class="cls-2" d="M250.13,240.75A71.36,71.36,0,0,0,251.59,225a28.33,28.33,0,0,0-.24-4.55,1.58,1.58,0,0,1-.23-.22,2.41,2.41,0,0,1-.56-1.1,36.65,36.65,0,0,1,.15,4,72.63,72.63,0,0,1-1.49,16l-.19.79H231.55c.07.29.13.59.2.88Z"/><path class="cls-2" d="M233.86,231.55c0-.14,0-.28,0-.42s0-.37,0-.55v-.34a41,41,0,0,1,.9-8.15h8.66a16.52,16.52,0,0,1,1.84.09c-.33-.51-1-1-3.76-1h-7.83a43,43,0,0,0-.69,7.11C233,231.05,233.35,231.48,233.86,231.55Z"/><path class="cls-2" d="M269.44,222.09a1.28,1.28,0,0,0-.2-.61c-.27-.27-1.46-.27-1.91-.27h-9.7l.11,17.56v.9l-.88.13-2.19.34-.1,1.18,4.05-.62-.11-18.61h10.93Z"/><path class="cls-2" d="M272,240.14l0,1.18,3.94-.62-1.07-17,.32-2.89a2.47,2.47,0,0,1-.77-.55,1.63,1.63,0,0,1-.23-.29l-.2,1.84,1.06,16.89.06.94-.93.14Z"/><path class="cls-2" d="M278.92,207.94a43.68,43.68,0,0,0-.27,4.36c0,.08,0,.22,0,.34a4.42,4.42,0,0,0,.64,0h.28c.05-1,.13-2,.24-2.95.16-1.12.33-1.85,1.63-1.91l.78-6h-1.12l-.56,4.18-.11.86-.87,0C279.09,207,279.07,207,278.92,207.94Z"/><path class="cls-2" d="M287,236.67c-1,.58-2.16,1.24-3.42,2a4.06,4.06,0,0,0-1.3,1.21,1.88,1.88,0,0,1-.18.24l-.29.38-.12.56,1.52.34a5.45,5.45,0,0,1,1.74-1.69c3.37-2.13,6-3.26,7.31-4.61,2-2,3.14-9.16,3.14-13.72,0-.23,0-.45,0-.67a2.37,2.37,0,0,1-.67-.52,2.43,2.43,0,0,1-.2-.25,42.21,42.21,0,0,1-.82,7.54c-.66,3.19-1.54,5.35-2.62,6.44A20.22,20.22,0,0,1,287,236.67Z"/><path class="cls-2" d="M289.66,222.12c-.24-.56-.94-.91-2.88-.91h-9.22l-.68,0c.33.68,1.15.9,2.6.9h9.22Q289.21,222.09,289.66,222.12Z"/><path class="cls-2" d="M309.66,221.21H298l-.71,0c.38.71,1.26.91,2.63.91h11.88a1.28,1.28,0,0,0-.2-.61C311.3,221.21,310.11,221.21,309.66,221.21Z"/><path class="cls-2" d="M317.2,223.72l.68-6.13c.14-1.24-.15-1.7-.89-1.87v.07l-.67,6,1.06,16.89.06.94-.93.14-2.14.34,0,1.18,3.94-.62Z"/><path class="cls-2" d="M300.66,227.31l-.2,11.49v.85l-.84.15-2.2.39c-.06.41-.11.82-.17,1.24l4.11-.73.22-13.38-.56-.17Z"/><path class="cls-2" d="M135.33,247.83l1.95-.3,2.1-.32-1.3-25.41.68-6.13v0c.21-1.92-.64-1.92-2.64-1.92h-1.35c-1.86,0-2.59-.4-2.59-1.63l-1.8-.12-.62,5.91c-.18,1.6.46,2.13,1.89,2.26a8.79,8.79,0,0,0,.92,0c2.16,0,2.88.33,3.05,2a11.56,11.56,0,0,1,0,1.52Z"/><path class="cls-2" d="M190.59,226.13c0,1.13.9,5.74,4.78,13.49l.92-.13a60.22,60.22,0,0,0,13.25-3.35c1.5-.66,3.42-3.7,5.07-7.38.62-1.37,1.2-2.84,1.72-4.3a30.86,30.86,0,0,0,2-8.82v0c0-1.52-.34-1.91-2.65-1.91H215c-1.86,0-2.53-.45-2.53-1.63l-1.8-.12-.62,5.91c-.19,1.66.51,2.16,1.89,2.27q.38,0,.81,0c1.46,0,1.8.4,1.8,1.46a4.53,4.53,0,0,1,0,.46c-.3,1.92-2.18,6.75-4.91,8.14a61.71,61.71,0,0,1-8,2.26c-.87.2-1.72.37-2.52.52l-.22,0c1.4-4.23,2.38-7.07,3.17-9,1.53-3.72,2.38-4,4.31-4.11l.62-4.33.28-1.91h-3.37c-1.86,0-2.53-.45-2.53-1.63l-1.8-.12-.62,5.91c-.17,1.63.39,2.13,1.86,2.25l-3.83,11.64-.33,1c-1.86-3-3-6.07-3-7.87a11.12,11.12,0,0,1,.06-1.16,8.21,8.21,0,0,1,.34-1.64,4,4,0,0,1,1.34-2.09l.63-4.38.27-1.91H193c-1.86,0-2.53-.45-2.53-1.63l-1.8-.12-.57,5.48v.06l0,.37a2.37,2.37,0,0,0,.25,1.56s0,0,0,0a1.51,1.51,0,0,0,.77.53h0a3.67,3.67,0,0,0,.83.14c.23,0,.47,0,.74,0h1.63c-.24.59-.48,1.23-.69,1.87A18.09,18.09,0,0,0,190.59,226.13Z"/><path class="cls-2" d="M228.88,231.08a34,34,0,0,0,1,7.76h18.38a71,71,0,0,0,1.47-15.74c0-2.77-.07-5-.88-6.57-.93-1.84-2.87-2.82-6.88-2.82h-8.83c-1.85,0-2.58-.4-2.58-1.63l-1.8-.12-.62,5.91c-.21,1.74.52,2.22,1.89,2.29h.41c-.09.35-.18.69-.26,1A39.7,39.7,0,0,0,228.88,231.08Zm3.93-10.91h8.66c3.2,0,4.48.59,5,2.26a19.19,19.19,0,0,1,.34,4.94c0,4.1-.45,5.23-2.47,5.23H234c-1.86-.11-2.08-1.87-2.08-4.27A41,41,0,0,1,232.81,220.17Z"/><path class="cls-2" d="M256.54,213.71c-1.86,0-2.59-.4-2.59-1.63l-1.8-.12-.62,5.74c-.19,1.73.44,2.31,1.89,2.44.25,0,.51,0,.81,0l-.13,1.54-1.44,17.69,2.1-.32,1.94-.3-.11-18.61h10.74c2.22,0,3,.3,3.16,2a12.93,12.93,0,0,1,0,1.46l-.45,15.8,2-.31,2-.31-1.07-17,.68-6.13v0c.2-1.92-.64-1.92-2.65-1.92Z"/><path class="cls-2" d="M275.46,206.11h.3l-.1,1.23-.67,8.48-.18,2.26a1.73,1.73,0,0,0,.5,1.61,2.64,2.64,0,0,0,1.41.44q.38,0,.84,0h9.22c2.25,0,3.69.45,4,2.12a3.69,3.69,0,0,1,.06.69,7.29,7.29,0,0,1-1.24,4.61c-1.74,1.41-3.54,2.2-7.76,4.44a2.33,2.33,0,0,0-.84,1.63l-1.18,5.51,1.52.34a5.86,5.86,0,0,1,1.74-1.69c3.37-2.13,6-3.26,7.31-4.61,2-2,3.15-9.16,3.15-13.71a7.12,7.12,0,0,0-.63-3.18c-.88-1.76-2.67-2.61-5.44-2.61H279.3c-1.63,0-1.68-.34-1.68-1.41a44.6,44.6,0,0,1,.28-4.5c.17-1.12.34-1.85,1.63-1.91l.53-4,.26-1.92h-1.86c-1.85,0-2.47-.39-2.47-1.63l-1.8-.11-.62,5.68C273.36,205.61,274,206.06,275.46,206.11Z"/><path class="cls-2" d="M312.42,239.4l2-.31,2-.31-1.07-17,.68-6.13v0c.21-1.92-.64-1.92-2.64-1.92H300.16c-1.85,0-2.59-.4-2.59-1.63l-1.79-.12-.62,5.74c-.19,1.69.45,2.28,1.89,2.43a8.54,8.54,0,0,0,.92,0h11.69c2.22,0,3,.3,3.16,2a10.75,10.75,0,0,1,.05,1.46Z"/><path class="cls-2" d="M299.43,238.78l.18-11,0-2.38-.56-.17-2.36,1.07c-.34,4.44-.79,8.66-1.4,13.21l2.21-.39Z"/><path class="cls-2" d="M224,193.73c26.95,0,48.88-25.19,48.88-56.15S251,81.42,224,81.42s-48.88,25.19-48.88,56.16S197.05,193.73,224,193.73ZM224,83c26.1,0,47.33,24.5,47.33,54.61s-21.23,54.6-47.33,54.6-47.33-24.49-47.33-54.6S197.9,83,224,83Z"/><path class="cls-2" d="M234.87,165.25l-2.44,2.13c.33-1.33,1.47-2.11,2-3.28-2.42,1.1-3.12,3.47-4.14,5.61C232.35,168.85,234.11,167.68,234.87,165.25Z"/><path class="cls-2" d="M236.49,159.55a16.54,16.54,0,0,0-2.45,2c.36-1.43,1.75-2.16,2.3-3.45-2.27,1-3.27,3-4,5.29C234.17,162.52,235.79,161.52,236.49,159.55Z"/><path class="cls-2" d="M213.93,117.57c-.16-.08-.3.07-.45.15a8.38,8.38,0,0,0-3.25,3c-.16.27-.52.63-.26.87s.46-.27.74-.36a1.74,1.74,0,0,1,.18-.11c.16-.07.33-.31.48-.1s-.07.35-.19.48a14.41,14.41,0,0,0-1.51,2c2.76-1,3.77-3.14,4.34-5.62C214.05,117.82,214.09,117.65,213.93,117.57Z"/><path class="cls-2" d="M211.6,129.5a8.79,8.79,0,0,0-4.33,4.94c.93-.82,1.87-1.38,2.66-2.15-.56,1.39-1.83,2.25-2.51,3.58a1.12,1.12,0,0,0,.27,0,6.46,6.46,0,0,0,4.36-6.18C212.05,129.31,211.85,129.37,211.6,129.5Z"/><path class="cls-2" d="M235.76,151.69a10,10,0,0,0,3.31-3.09,3.74,3.74,0,0,0,.67-1.62l-2.39,2.43c.56-1.62,1.8-2.81,2.59-4.38a2.6,2.6,0,0,0-1,.42c-2.2,1.39-3.18,3.56-3.78,6,0,.13-.09.29.05.39S235.6,151.8,235.76,151.69Z"/><path class="cls-2" d="M232.54,171.37,230,173.45a18,18,0,0,1,2.19-3.12c-2.52,1-3.65,3.16-4.46,5.67C230.3,174.61,232.16,173.45,232.54,171.37Z"/><path class="cls-2" d="M212.24,123.47a9.86,9.86,0,0,0-3.31,3.08,3.8,3.8,0,0,0-.67,1.62l2.39-2.43c-.56,1.63-1.8,2.81-2.59,4.39a2.6,2.6,0,0,0,1-.42c2.2-1.4,3.18-3.57,3.78-6,0-.14.09-.3-.05-.39S212.4,123.35,212.24,123.47Z"/><path class="cls-2" d="M234.06,157.58c.17.08.31-.07.46-.14a8.48,8.48,0,0,0,3.25-3c.16-.27.52-.62.26-.87s-.46.28-.74.37c-.06,0-.12.08-.18.1s-.33.31-.48.1.07-.34.19-.48a13.85,13.85,0,0,0,1.51-2c-2.76,1-3.77,3.15-4.34,5.62C234,157.34,233.91,157.51,234.06,157.58Z"/><path class="cls-2" d="M234.72,173.47a21.51,21.51,0,0,0-.86-3.65c-.91,2.42-.26,4.49.62,6.68,1.3-2.81,1.38-5.63.22-6.7C234.77,171,235.12,172.25,234.72,173.47Z"/><path class="cls-2" d="M236.4,145.65a8.79,8.79,0,0,0,4.33-4.94c-.93.83-1.87,1.39-2.66,2.15.56-1.38,1.83-2.24,2.51-3.58-.14,0-.21,0-.27,0a6.45,6.45,0,0,0-4.36,6.18C236,145.84,236.15,145.78,236.4,145.65Z"/><path class="cls-2" d="M237,168.83a25.76,25.76,0,0,0-1-4.13c-1.29,2.74-.38,5.07,1.08,7.31a8.28,8.28,0,0,0-.09-7.46A12.29,12.29,0,0,1,237,168.83Z"/><path class="cls-2" d="M231.39,177a21.59,21.59,0,0,1,.44-2.73c-.56.54-1.24.73-1.38,1.45-.22,1.08,0,2.15-.16,3.42a11.78,11.78,0,0,0,2.51-2.86,1.56,1.56,0,0,0,0-1.71C232.29,175.3,232,176.15,231.39,177Z"/><path class="cls-2" d="M241.16,152.32c.55,1.06,1.15,2.09,1.74,3.14.07.12.13.29.29.27s.18-.25.2-.4a13.44,13.44,0,0,0-.57-5.42A4.22,4.22,0,0,0,241.5,148c.31,1.36,1.06,2.62,1,4.07a12.25,12.25,0,0,0-1.81-3.31A5.88,5.88,0,0,0,241.16,152.32Z"/><path class="cls-2" d="M244.09,148.16c.59-4.41.17-6.74-1.54-7.86.61,1.48,1.33,2.82,1.12,4.51-.69-1.18-.82-2.49-1.59-3.54C241.41,142.89,242.89,147.18,244.09,148.16Z"/><path class="cls-2" d="M240.69,156.86a12,12,0,0,0-1.47-2.92c-.37,2.6.71,4.78,2,7a10.74,10.74,0,0,0-1.31-7.82A18.3,18.3,0,0,1,240.69,156.86Z"/><path class="cls-2" d="M239.1,162.72a27.67,27.67,0,0,0-1.4-3.95c-1.08,3,.23,5.2,1.75,7.54.45-2.81.77-5.46-.86-7.91C238.76,159.83,239.38,161.22,239.1,162.72Z"/><path class="cls-2" d="M207.31,126.42a5.88,5.88,0,0,0-.47-3.59c-.55-1.06-1.15-2.09-1.74-3.13-.07-.12-.13-.29-.29-.27s-.18.24-.2.39a13.44,13.44,0,0,0,.57,5.42,4.2,4.2,0,0,0,1.32,2c-.31-1.37-1.06-2.62-1-4.07A12.05,12.05,0,0,0,207.31,126.42Z"/><path class="cls-2" d="M207.31,118.29a12.19,12.19,0,0,0,1.47,2.93c.37-2.61-.71-4.79-2-7a10.74,10.74,0,0,0,1.31,7.82A18.17,18.17,0,0,1,207.31,118.29Z"/><path class="cls-2" d="M208.9,112.44a27.56,27.56,0,0,0,1.4,3.94c1.08-3-.23-5.2-1.75-7.54-.45,2.81-.77,5.46.86,7.91C209.24,115.32,208.62,113.94,208.9,112.44Z"/><path class="cls-2" d="M211.51,115.6a15.88,15.88,0,0,0,2.45-2c-.36,1.42-1.75,2.15-2.3,3.44,2.27-1,3.27-3,4-5.28C213.83,112.63,212.21,113.63,211.51,115.6Z"/><path class="cls-2" d="M211.05,106.33a25.9,25.9,0,0,0,1,4.12c1.29-2.74.38-5.06-1.08-7.3a8.25,8.25,0,0,0,.09,7.45A12.23,12.23,0,0,1,211.05,106.33Z"/><path class="cls-2" d="M224,190.8c25.34,0,45.95-23.87,45.95-53.22S249.34,84.35,224,84.35s-45.95,23.88-45.95,53.23S198.66,190.8,224,190.8ZM227.31,170a45,45,0,0,0,4.82-9.06c-1.34,1.48-3,2.66-4.12,4.35a3.68,3.68,0,0,1,1-1.8c.72-.87,1.43-1.74,2.21-2.56,1-1.1,1.27-2.54,1.67-3.9.12-.42.19-.86.33-1.49L230,159.9a4.17,4.17,0,0,1,.8-2,24.33,24.33,0,0,0,1.38-2.14,13,13,0,0,0,1.69-4.18c.05-.41.33-.85.13-1.41a30.08,30.08,0,0,0-4,4.71,5.8,5.8,0,0,1,.88-1.8c.84-1.36,2-2.5,2.74-3.92a11.38,11.38,0,0,0,1.29-4.22c.3-3.37,2.32-5.43,5.26-6.74.42-.19.81-.32.85-.88.08-1.26.16-2.52.2-3.78,0-.48,0-1-.07-1.49s-.07-1-.12-1.52c-.08-1-.23-2-.34-3-.3-2-.63-4-1.07-6a82.6,82.6,0,0,0-3.39-11.75c-.18-.47-.33-1-.53-1.43l-.59-1.41-.58-1.42-.29-.7c-.1-.24-.21-.46-.32-.69l-1.31-2.77c-.11-.22-.21-.46-.33-.68l-.37-.67-.73-1.34-.72-1.35-.36-.67-.41-.65-1.61-2.59a24,24,0,0,0-1.44-2.17c-.45-.62-1-1.22-1.38-1.89a1.93,1.93,0,0,1,1.65-2.78,2,2,0,0,1,1.62.76,12.75,12.75,0,0,1,.87,1.78l2.15,3.85c1.29,2.3,2.6,4.59,3.95,6.86,1.18,2,2.38,4,3.62,5.89,1.08,1.68,2.17,3.34,3.3,5,1,1.4,2,2.79,3,4.15.86,1.15,1.74,2.29,2.65,3.4.76.92,1.53,1.83,2.33,2.71.66.72,1.33,1.43,2,2.11s1.12,1.07,1.7,1.58.91.77,1.39,1.13.7.51,1.07.74a7.3,7.3,0,0,0,.77.44l.45.21.15,0c-6.56-1.15-15-12-21.46-21.92.53,1.28,1,2.57,1.49,3.87a76.11,76.11,0,0,1,3.2,12.07,60.8,60.8,0,0,1,1.05,12.43.43.43,0,0,1,0,0c0,1.18,0,2.35,0,3.52a1.1,1.1,0,0,0,.42,1,7.16,7.16,0,0,1,2.61,6.4,25.84,25.84,0,0,0,.7,8.59,18.31,18.31,0,0,1,.52,6.08c0,.28,0,.56,0,.84l-.21,1a3.2,3.2,0,0,1-.09-.62,27.57,27.57,0,0,0-.6-5.59,15.84,15.84,0,0,0-1.45-4.44,9.67,9.67,0,0,1,.16,3.43,28.38,28.38,0,0,0,.13,8.28,16.1,16.1,0,0,1,0,5.09,40.42,40.42,0,0,0-1.8-10.36c-.07.68,0,1.35-.11,2a22.22,22.22,0,0,0-.25,5.76,38.79,38.79,0,0,1,.22,5.06,10.53,10.53,0,0,1-.34,2.95c-.12-3.6-.13-7.2-1.22-10.67-.06.7-.07,1.4-.13,2.1-.14,1.54-.59,3-.67,4.6-.13,2.46,0,4.94-.35,7.38a8.59,8.59,0,0,1-.82,3.06c.07-.92.22-1.82.31-2.72s.14-1.83.16-2.75,0-1.83,0-2.74a8.36,8.36,0,0,0-.36-2.63,19.35,19.35,0,0,1-1,3.46,8.71,8.71,0,0,0-.55,2.12c-.18,1.82-.4,3.64-.72,5.44a11.08,11.08,0,0,1-.89,3.29c.1-1,.26-1.95.39-2.92s.19-1.91.28-2.87a9.14,9.14,0,0,0,0-2.81c-2.08,4.7-3.06,9.84-5.68,14.35.43-1.29.91-2.55,1.35-3.84a32.44,32.44,0,0,0,1.5-5.13,5.17,5.17,0,0,0-.11-2.36,8.52,8.52,0,0,1-2,2.08,10.16,10.16,0,0,0-2.85,3.71c-.91,1.86-1.62,3.81-2.68,5.59l-.14,0c.82-2.13,1.67-4.24,2.45-6.38a10.28,10.28,0,0,0,.75-4.49c0-.18,0-.37,0-.56s.25-.55-.05-.7-.47.16-.68.3a12.67,12.67,0,0,0-4.09,5.62c-.27.59-.47,1.21-.77,1.8a5.9,5.9,0,0,1,.66-2.65c1.16-2.69,2.55-5.29,3.65-8a1,1,0,0,0,.1-.41,33.62,33.62,0,0,0-3.28,4.41c1.75-3.9,4.67-7.14,6-11.13C229.48,167.19,228.51,168.66,227.31,170Zm-34.83-20.49c-.35-.26-.7-.51-1.07-.75s-.5-.3-.77-.44l-.45-.2L190,148c6.56,1.16,15,12.05,21.46,21.93-.53-1.28-1-2.58-1.49-3.88a76.27,76.27,0,0,1-3.2-12.06,61,61,0,0,1-1.05-12.44s0,0,0-.05c0-1.17,0-2.35,0-3.52a1.1,1.1,0,0,0-.42-1,7.15,7.15,0,0,1-2.61-6.39,25.9,25.9,0,0,0-.7-8.6,18.27,18.27,0,0,1-.52-6.07c0-.28,0-.56,0-.85l.21-1a3.31,3.31,0,0,1,.09.62,27.74,27.74,0,0,0,.6,5.6,15.88,15.88,0,0,0,1.45,4.43,9.61,9.61,0,0,1-.16-3.42,28.37,28.37,0,0,0-.13-8.28,16.16,16.16,0,0,1,0-5.1,40.57,40.57,0,0,0,1.8,10.37c.07-.68,0-1.36.11-2a22.14,22.14,0,0,0,.25-5.75,39,39,0,0,1-.22-5.07,10.42,10.42,0,0,1,.34-2.94c.12,3.59.13,7.19,1.22,10.66.06-.7.07-1.4.13-2.1.14-1.54.59-3,.67-4.59.13-2.47,0-4.94.35-7.39a8.48,8.48,0,0,1,.82-3c-.07.91-.22,1.81-.31,2.72s-.14,1.83-.16,2.74,0,1.83,0,2.75a8.34,8.34,0,0,0,.36,2.62,19.35,19.35,0,0,1,1-3.46,8.75,8.75,0,0,0,.55-2.11c.18-1.82.4-3.64.72-5.45a10.93,10.93,0,0,1,.89-3.28c-.1,1-.26,1.94-.39,2.91s-.19,1.92-.28,2.88a9.08,9.08,0,0,0,0,2.8c2.08-4.69,3.06-9.84,5.68-14.35-.43,1.29-.91,2.56-1.35,3.84a32.87,32.87,0,0,0-1.5,5.14,5.18,5.18,0,0,0,.11,2.36,8.57,8.57,0,0,1,2-2.09,10.08,10.08,0,0,0,2.85-3.71c.91-1.85,1.62-3.8,2.68-5.58l.14,0c-.82,2.12-1.67,4.24-2.45,6.38a10.21,10.21,0,0,0-.75,4.48c0,.18,0,.37,0,.56s-.25.56.05.7.47-.16.68-.3a12.61,12.61,0,0,0,4.09-5.62c.27-.59.47-1.21.77-1.79a5.86,5.86,0,0,1-.66,2.64c-1.16,2.7-2.55,5.29-3.65,8a1.08,1.08,0,0,0-.1.41,33.52,33.52,0,0,0,3.28-4.4c-1.75,3.89-4.67,7.14-6,11.12,1.22-1.09,2.19-2.56,3.39-3.84a44.72,44.72,0,0,0-4.82,9.06c1.34-1.49,3-2.67,4.12-4.36a3.68,3.68,0,0,1-1,1.8c-.72.87-1.43,1.75-2.21,2.56-1,1.11-1.27,2.54-1.67,3.91-.12.42-.19.85-.33,1.48l3.22-4.41a4.25,4.25,0,0,1-.8,2c-.45.72-1,1.38-1.38,2.13a13,13,0,0,0-1.69,4.19c-.05.4-.33.85-.13,1.4a30,30,0,0,0,4-4.7,5.75,5.75,0,0,1-.88,1.79c-.84,1.36-2,2.5-2.74,3.92a11.38,11.38,0,0,0-1.29,4.22c-.3,3.37-2.32,5.43-5.26,6.75-.42.18-.81.31-.85.88-.08,1.26-.16,2.51-.2,3.77,0,.49,0,1,.07,1.49s.07,1,.12,1.52c.08,1,.23,2,.34,3,.3,2,.63,4,1.07,6a82.47,82.47,0,0,0,3.39,11.74c.18.48.33,1,.53,1.43l.59,1.42.58,1.41.29.71c.1.23.21.46.32.69l1.31,2.76c.11.23.21.46.33.69l.37.67.73,1.34.72,1.34.36.67.41.65,1.61,2.6a23.84,23.84,0,0,0,1.44,2.16c.45.62,1,1.22,1.38,1.89a1.93,1.93,0,0,1-1.65,2.79,2,2,0,0,1-1.62-.77,12.75,12.75,0,0,1-.87-1.78c-.71-1.28-1.43-2.56-2.15-3.84-1.29-2.31-2.6-4.6-3.95-6.87-1.18-2-2.38-3.94-3.62-5.89-1.08-1.67-2.17-3.34-3.3-5q-1.45-2.1-3-4.15-1.29-1.73-2.65-3.39c-.76-.93-1.53-1.83-2.33-2.72-.66-.72-1.33-1.43-2-2.11s-1.12-1.07-1.7-1.58S193,149.81,192.48,149.46Z"/><path class="cls-2" d="M203.91,127c-.59,4.41-.17,6.74,1.54,7.86-.61-1.47-1.33-2.81-1.12-4.51.69,1.18.82,2.5,1.59,3.55C206.59,132.27,205.11,128,203.91,127Z"/><path class="cls-2" d="M216.61,98.17a21.73,21.73,0,0,1-.44,2.72c.56-.54,1.24-.73,1.38-1.45.22-1.07,0-2.15.16-3.42a11.78,11.78,0,0,0-2.51,2.86,1.56,1.56,0,0,0,0,1.71A27.61,27.61,0,0,1,216.61,98.17Z"/><path class="cls-2" d="M215.46,103.78l2.59-2.08a17.64,17.64,0,0,1-2.19,3.12c2.52-1,3.65-3.16,4.46-5.67C217.7,100.55,215.84,101.7,215.46,103.78Z"/><path class="cls-2" d="M215.57,107.77c-.33,1.33-1.47,2.11-2,3.29,2.42-1.11,3.12-3.48,4.14-5.62-2.07.86-3.83,2-4.59,4.47Z"/><path class="cls-2" d="M213.28,101.68a21.51,21.51,0,0,0,.86,3.65c.91-2.41.26-4.49-.62-6.67-1.3,2.81-1.38,5.62-.22,6.69C213.23,104.11,212.88,102.9,213.28,101.68Z"/></g></g></svg>