<svg id="Layer_1" data-name="Layer 1" xmlns="http://www.w3.org/2000/svg" xmlns:xlink="http://www.w3.org/1999/xlink" viewBox="0 0 517.76 388.32"><defs><style>.cls-1{fill:none;}.cls-2{fill:#f6a51c;}.cls-3{clip-path:url(#clip-path);}.cls-4{fill:#fff;}</style><clipPath id="clip-path"><rect class="cls-1" x="177.58" y="100.97" width="162.78" height="186.36"/></clipPath></defs><title>Artboard 11</title><g id="back"><rect class="cls-2" x="0.22" y="0.1" width="517.5" height="388.13" rx="32.75"/></g><g id="logo"><g id="Lev_kelev" data-name="Lev kelev"><g class="cls-3"><g class="cls-3"><path class="cls-4" d="M197,212.31a3.65,3.65,0,0,1-.59-1.86,2.91,2.91,0,0,1,.89-2.16l.12-.09q-1.8-2.23-3.6-4.63c-3.36-4.51-6.41-9.16-9.24-13.49-1.53-2.39-3.1-4.94-4.8-7.82h0a171.86,171.86,0,0,0,13,31,3.23,3.23,0,0,1,2.62-1.15,5.79,5.79,0,0,1,1.6.24"/><path class="cls-4" d="M207.79,237l.85-1.56c-1-.38-1.92-.79-2.8-1.15.66.91,1.29,1.83,1.95,2.73"/><path class="cls-4" d="M227.29,199c8-16.59,15.65-34.46,19.64-48.38l4.43,18.82,9.24-15.14v15.26a3.56,3.56,0,0,0,2.56,3.47,12.21,12.21,0,0,1,8.8,8.61,4,4,0,0,0,.39.91c1.55-3,2.55-4.55,2.55-4.55a170.09,170.09,0,0,0-5.11-24.26c-6.15-21.12-29.17-33.26-52.72-28.53-.57.11-1.16.25-1.71.39l-.14,1a146.45,146.45,0,0,0-1.55,24.13c.37,13.34,3.06,32.4,13.7,48.26"/><path class="cls-4" d="M274.76,250.29a170.78,170.78,0,0,1-21.48-6.37l-2.75,0a163.77,163.77,0,0,0-4.27,33.73,156.08,156.08,0,0,0,12.85,9.75h0c.36-.18,23.34-11,46.38-34.2a46.56,46.56,0,0,1-7.08.51c-8.09,0-16.37-1.79-23.66-3.36"/><path class="cls-4" d="M274.44,184.12l24.89,6.44a3.22,3.22,0,0,1,2.37,3.69c-1.39,7.81-7.77,27.44-36,15.59a4.55,4.55,0,0,0-3.21-.13,4.39,4.39,0,0,0-2.91,3c-.44,1.53-1.65,5-3.19,9.79l.29.13c1.16.54,2.31,1,3.47,1.48l2.88,1.15c18.95-3.46,37.42-16.77,55-39.79,3.67-4.82,7.37-10.15,11-15.86l.28-.43a35.54,35.54,0,0,0-8.17-5.67A34.89,34.89,0,0,0,274.87,178s-1,1.54-2.57,4.56a3.59,3.59,0,0,0,2.18,1.61"/><path class="cls-4" d="M307.27,230.89a3.8,3.8,0,0,1,.56,1.49l.36-.07c1.75-.37,3.56-.75,5.05-.95a15.21,15.21,0,0,1,1.91-.15c2.25,0,3.15,1.07,3.46,1.95a2.86,2.86,0,0,1-.05,2.31,3.61,3.61,0,0,1-1.26,1.45,6.39,6.39,0,0,1,1.15.26,4.36,4.36,0,0,1,.85.39,160.83,160.83,0,0,0,14.76-22.32c-3.67,2.53-9.55,6.37-17,10.49q-4.92,2.74-9.83,5.15"/><path class="cls-4" d="M338.56,183.56a35.07,35.07,0,0,0-7.44-12.6V171q-5.58,8.78-11.09,16c-18.25,23.93-36,35.72-52.45,39.87,1.63.56,3.33,1.16,5.12,1.66a149.27,149.27,0,0,0,18.73,4.85h.43a2.28,2.28,0,0,0,.73-.08l.7-.08a6.72,6.72,0,0,0,1.07-.15,14.46,14.46,0,0,0,2-.57,30.73,30.73,0,0,0,3.75-1.69l.48-.25a10,10,0,0,1,3-1.16,4.27,4.27,0,0,1,.71-.07h.3c4-1.92,7.8-3.9,11.21-5.77A203.72,203.72,0,0,0,335.72,211l.14-.1.3-.22.17-.13h0l.11-.07.21-.16h0a35,35,0,0,0,1.89-26.67"/><path class="cls-4" d="M217.27,227.16q-1.53-1-3-2.22a95.91,95.91,0,0,1-15.18-14.76c-.9,1.26,7.72,7.18,6.93,8.31h0a.44.44,0,0,1-.36.12c-1.7,0-8.09-4-10.24-4-.33,0-.56.09-.65.32-.74,1.8,10.47,6.86,10.23,8,0,.15-.2.22-.47.22a42,42,0,0,1-5.85-1.56c-.47-.13-.9-.23-1.28-.3a3.2,3.2,0,0,0-.75-.09h-.19c-.25,0-.41.12-.43.31s.47.84,1.27,1.37A19.19,19.19,0,0,0,199,224c1.38.76,2.93,1.57,4.08,2.24,1,.58,1.63,1.06,1.6,1.36a.07.07,0,0,1,0,.09h0c-.08.2-.34.27-.71.27a23.85,23.85,0,0,1-2.67-.39,2.72,2.72,0,0,0-.57,0c-.29,0-.47.05-.46.24s.47.63,1.28,1.15c.34.24.73.49,1.16.74a46.34,46.34,0,0,0,7.16,3.47c1.16.45,2.39.87,3.66,1.25a40.14,40.14,0,0,0,4,1l.56.08A122.52,122.52,0,0,0,245.52,241l-2.21-.87c-8.21-3.26-17.67-7.21-26-13"/><path class="cls-4" d="M317.66,239.65h0a10.67,10.67,0,0,0-3-.29c-1.79,0-3.91.14-5.52.14s-2.51-.1-2.59-.51c-.26-1.37,10.3-3.35,9.69-4.87-.09-.25-.51-.34-1.16-.34a11.43,11.43,0,0,0-1.54.13c-1.91.25-4.46.84-6.67,1.29a24.81,24.81,0,0,1-3.82.57,1.19,1.19,0,0,1-.67-.13s-.07,0-.07-.09c-.48-1.21,4-1.55,2.68-3.39l-.14-.13a.83.83,0,0,0-.57-.18h-.26a10.49,10.49,0,0,0-2.79,1.16,35,35,0,0,1-4.05,1.82,17.26,17.26,0,0,1-2.41.67c-.43.08-.86.14-1.29.19l-.51.06c-.32,0-.64.08-1,.1l-.75.06c-.61-.1-1.15-.21-1.82-.33A161,161,0,0,1,271.88,231q-4.62-1.41-9.16-3.1c-.81-.3-1.62-.63-2.43-.94l-1.15-.47-1.29-.55-2.31-1h0c-1.52-.69-3-1.41-4.54-2.18a70,70,0,0,1-20.52-15.42,60.58,60.58,0,0,1-4.52-5.71c-10.29-14.61-14.51-33.24-15-50.82a147.06,147.06,0,0,1,1.57-24.54,52.06,52.06,0,0,0-11.43,4.84c-13.55,7.76-22.34,21.05-23.45,35.16a4.85,4.85,0,0,1-.06.93,1.5,1.5,0,0,0,0,.3v.21a35.86,35.86,0,0,0,.21,5.86c.24,2.19,3.06,5.47,4.18,7.37a1,1,0,0,1,.08.14c.72,1.16,1.43,2.4,2.17,3.59l.19.31c.76,1.23,1.53,2.47,2.31,3.69,1.37,2.13,2.76,4.23,4.17,6.33,1.6,2.38,3.23,4.73,4.94,7,1.4,1.89,2.86,3.75,4.35,5.56.61.74,1.23,1.48,1.87,2.21v.06c1.15,1.38,2.42,2.74,3.69,4.07a84,84,0,0,0,12.89,11.15c7.85,5.39,16.67,9.18,25.53,12.71,2.31.92,4.69,1.83,7.06,2.72l2.44.89,3.46,1.24,3.39,1.15a148.68,148.68,0,0,0,14.67,4c7.4,1.61,15.34,3.32,23.1,3.32a44.74,44.74,0,0,0,8-.69c1-.19,1.56-.41,1.65-.58.4-.77-4.34-.9-4-1.94.23-.68,4.47-.74,7.48-1.16h0a6.39,6.39,0,0,0,1.22-.18c.92-.17,1.59-.41,1.7-.75.06-.18-.06-.33-.28-.46A3.73,3.73,0,0,0,313,245h0c-2.53-.55-7.6-.66-7.41-1.51s6.86-1.16,10.4-2h0c1.29-.33,2.16-.71,2.18-1.23,0-.29-.24-.49-.66-.62"/><path class="cls-4" d="M308.65,158.35a10.86,10.86,0,1,0-10.85-10.87v0a10.86,10.86,0,0,0,10.85,10.85"/><path class="cls-4" d="M234.36,122.68a10.86,10.86,0,1,0-10.85-10.87v0a10.87,10.87,0,0,0,10.85,10.85"/></g></g></g></g></svg>