<svg id="Layer_1" data-name="Layer 1" xmlns="http://www.w3.org/2000/svg" viewBox="0 0 517.76 388.32"><defs><style>.cls-1{fill:#005074;}.cls-2{fill:#e2c46f;}.cls-3{fill:#fff;}.cls-4{isolation:isolate;}</style></defs><title>Artboard 1</title><g id="back"><rect class="cls-1" y="0.15" width="517.76" height="388.32" rx="32.76"/></g><g id="logo"><polygon class="cls-2" points="279.54 154.89 279.53 154.89 279.52 154.89 279.54 154.89"/><path class="cls-3" d="M285.11,122.47a43.37,43.37,0,0,0-55.34,2.5,1.29,1.29,0,0,0-.17.16c-.41.37-.82.76-1.21,1.15l-.69.7-.65.68c-.94,1-1.84,2.1-2.7,3.23a43.38,43.38,0,0,0,8.42,60.76c.44-1.15.89-2.28,1.36-3.42h0a121.13,121.13,0,0,1,5.43-11.46.21.21,0,0,0,.06-.1v-.08l-.1-.15v0l-.05-.09a68.9,68.9,0,0,1-6.09-11.91,2.6,2.6,0,0,1,3-3.46,69.81,69.81,0,0,1,11.41,3.73h0l.52-.9,1-1.69a9.68,9.68,0,0,1-7.15-5.64,6.83,6.83,0,0,1-.46-1.83,9.62,9.62,0,0,1-.84-.85,10.61,10.61,0,0,1,1-15,7.09,7.09,0,0,1,.63-3.93,11.65,11.65,0,0,1,4.27-4.75A23.2,23.2,0,0,1,254,127a29,29,0,0,1,4.89-.87,25.9,25.9,0,0,1,4.9.13,36.19,36.19,0,0,1,4.73.79,24.81,24.81,0,0,1,2.94.87,14.77,14.77,0,0,1,3.18,1.65,5.42,5.42,0,0,1,2.06,2.31,3.2,3.2,0,0,1,.19,1.06c0,1.39-1,2.63-2.7,3.71h-.06l1.29,8.17,2,1.71a4.76,4.76,0,0,1,1,1.21l2.64,4.42a1.83,1.83,0,0,1-.63,2.5,1.8,1.8,0,0,1-1,.26h0l-2.46-.07.17.91.39,2.52v.14l1,6.64,0,0L281,168.4a.25.25,0,0,1,0,.07,3.82,3.82,0,0,1-4.66,5.63l-8.62-3.7-.14-.06-.89,1.56-1.84,3.17a70.38,70.38,0,0,1,14.39,16.17h0c.64,1,1.27,2,1.87,3.06a43.59,43.59,0,0,0,7.7-5.86l.63-.6.32-.34c.54-.54,1.06-1.11,1.57-1.69.33-.36.64-.74.95-1.11l.43-.53c.25-.32.52-.62.77-1A43.38,43.38,0,0,0,285.11,122.47Z"/><path class="cls-3" d="M307.41,120.73a60.62,60.62,0,1,0-97.08,72.62q.87,1.16,1.8,2.31a59.64,59.64,0,0,0,11.19,10.51,61.76,61.76,0,0,0,6.68,4.24,63.09,63.09,0,0,0,8.09,3.64,56.55,56.55,0,0,0,5.68,1.77c1.93.44,3.91.84,5.91,1.15a61.15,61.15,0,0,0,18.42,0,48.74,48.74,0,0,0,5.92-1.15,61.51,61.51,0,0,0,8.43-2.86c1.81-.78,3.58-1.63,5.29-2.55a62.89,62.89,0,0,0,6.69-4.24,59.25,59.25,0,0,0,5.17-4.2,59.85,59.85,0,0,0,6-6.31q.93-1.16,1.8-2.31h0A60.63,60.63,0,0,0,307.41,120.73Zm-15.28,80.54-.27.2q-.89.66-1.8,1.29l-.3.2c-.63.43-1.27.84-1.92,1.24l-.79.47-1.17.68-1,.56-.84.43c-.53.27-1,.53-1.58.78s-.83.38-1.24.56-.87.39-1.31.57l-1.44.57-1.15.42c-.54.19-1.07.37-1.61.54l-1,.31c-.6.17-1.19.35-1.79.51l-.82.2c-.66.16-1.32.32-2,.46l-.58.11c-.74.14-1.49.28-2.24.4l-.2,0c-1.39.21-2.8.35-4.22.46l-1.23.09c-.73,0-1.45,0-2.18,0h-2.16a55.28,55.28,0,0,1,1.57-110.55h0c.93,0,1.85,0,2.77.07l1.51.11,1.22.1c.6.06,1.19.14,1.78.22l.92.11c.63.1,1.26.21,1.88.33.26,0,.51.08.77.14.65.13,1.29.28,1.94.43l.66.15c.66.17,1.31.35,2,.54l.6.17c.66.2,1.31.42,2,.64l.54.18,1.95.74.5.2c.65.27,1.28.55,1.92.84l.48.21c.63.3,1.25.61,1.87.93l.46.24c.62.32,1.22.66,1.83,1l.45.26c.6.36,1.18.72,1.76,1.09l.45.29c.57.37,1.14.76,1.7,1.16l.44.31c.55.4,1.1.81,1.64,1.23l.42.34c.54.42,1.06.86,1.58,1.3l.41.36c.51.44,1,.9,1.52,1.37l.39.37c.49.48,1,1,1.45,1.46l.36.37c.48.5.95,1,1.41,1.54l.31.36c.47.54.92,1.08,1.36,1.63l.27.35c.45.57.89,1.14,1.31,1.73.08.1.15.21.22.31.44.61.86,1.22,1.27,1.85l.15.24c.43.65.85,1.32,1.24,2l.08.13c.52.88,1,1.79,1.48,2.7a1.14,1.14,0,0,0,.1.19c.46.91.89,1.84,1.31,2.77l.07.18c.42,1,.82,1.95,1.19,2.95h0a55.42,55.42,0,0,1,3.13,24.44l0,.35c-.09.86-.2,1.72-.33,2.57,0,.1,0,.2-.05.31-.12.82-.27,1.64-.43,2.44a.52.52,0,0,0,0,.11c-.17.81-.36,1.61-.56,2.4l-.15.58c-.17.64-.35,1.28-.54,1.91-.05.16-.09.33-.15.49-.23.75-.48,1.5-.75,2.23-.06.18-.13.36-.2.54q-.35.93-.72,1.83c-.07.16-.13.33-.2.48-.32.76-.65,1.5-1,2.23l-.09.18c-.34.71-.7,1.41-1.07,2.1l-.14.25A55.59,55.59,0,0,1,292.13,201.27Z"/><g class="cls-4"><path class="cls-3" d="M112.5,256.21V268a10.14,10.14,0,0,0,.57,4,3,3,0,0,0,2,1.67,20.35,20.35,0,0,0,4.64.47v1.49q-8.34-.19-12.41-.2-3.39,0-8.54.13l-2.17.07v-1.35a11.77,11.77,0,0,0,3.29-.55,2.34,2.34,0,0,0,1.42-1.56,13.11,13.11,0,0,0,.38-3.72V234.79a13.19,13.19,0,0,0-.38-3.73,2.34,2.34,0,0,0-1.42-1.56,11.84,11.84,0,0,0-3.29-.54V227.6c2.31.14,5.74.21,10.31.21l7.52-.07c.9-.05,1.94-.07,3.12-.07q9.15,0,14,3.63a11.57,11.57,0,0,1,4.82,9.73,14.5,14.5,0,0,1-1.9,7.15,14.65,14.65,0,0,1-6.41,5.73q-4.5,2.29-12,2.3ZM114,229.43a2.69,2.69,0,0,0-1.19,1.7,15,15,0,0,0-.33,3.66v20.07h2.91q5.49,0,7.59-3.53t2.1-9.56q0-6.57-1.93-9.69c-1.29-2.08-3.44-3.12-6.47-3.12A5.81,5.81,0,0,0,114,229.43Z"/></g><g class="cls-4"><path class="cls-3" d="M171.93,273.42a3.45,3.45,0,0,0,2,1v1.21q-3.65-.18-9.22-.18-6.19,0-9.22.18v-1.21a9.31,9.31,0,0,0,3.27-.58,1.63,1.63,0,0,0,1-1.61,8.59,8.59,0,0,0-.73-2.91l-3.64-10H142.14l-1.57,4.19a20.22,20.22,0,0,0-1.7,6.73,3.44,3.44,0,0,0,1.36,3.13,8.31,8.31,0,0,0,4,1v1.21c-2.76-.12-5.26-.18-7.53-.18-1.86,0-3.39.06-4.61.18v-1.21q3-.56,5.22-6.37l13.83-35.49c.45,0,1.15.06,2.12.06s1.66,0,2.07-.06l14.74,38A7.47,7.47,0,0,0,171.93,273.42Zm-17-15.29-6-16.38-6.31,16.38Z"/><path class="cls-3" d="M214.21,233.87a6.34,6.34,0,0,0-2.94,1,3.78,3.78,0,0,0-1.28,2.3,24.56,24.56,0,0,0-.33,4.67V258q0,8.67-2.49,12.86a10.92,10.92,0,0,1-4.73,4.15,17.28,17.28,0,0,1-7.58,1.49q-7,0-10.92-3a10.93,10.93,0,0,1-3.76-5.67,36.94,36.94,0,0,1-1-9.62v-19a11.51,11.51,0,0,0-.34-3.33,2.08,2.08,0,0,0-1.27-1.4,10.67,10.67,0,0,0-2.94-.48v-1.22c2.06.12,5.22.18,9.46.18s7.42-.06,9.65-.18v1.22a12.24,12.24,0,0,0-3.19.48,2.16,2.16,0,0,0-1.36,1.4,10.63,10.63,0,0,0-.37,3.33V262c0,4.25.62,7.37,1.85,9.38s3.41,3,6.52,3q6.08,0,8.56-4.1t2.48-11.61v-16a23.74,23.74,0,0,0-.42-5.22,3.8,3.8,0,0,0-1.64-2.45,9.45,9.45,0,0,0-3.82-1.06v-1.22q2.31.18,6.55.18,3.4,0,5.28-.18Z"/><path class="cls-3" d="M236.47,233.87a12.23,12.23,0,0,0-3.18.48,2.19,2.19,0,0,0-1.37,1.4,11,11,0,0,0-.36,3.33V269.9a9.56,9.56,0,0,0,.3,2.82,1.82,1.82,0,0,0,1.06,1.18,7,7,0,0,0,2.46.31h3a9,9,0,0,0,7.13-3.7,19.94,19.94,0,0,0,3.91-9.83h1.4q-.18,2.06-.18,5.34a89.27,89.27,0,0,0,.42,9.58q-4.12-.18-13.89-.18-13.23,0-19.78.18v-1.21a10.25,10.25,0,0,0,2.95-.49,2.08,2.08,0,0,0,1.27-1.39,12.05,12.05,0,0,0,.33-3.34V239.08a12,12,0,0,0-.33-3.33,2.1,2.1,0,0,0-1.27-1.4,10.69,10.69,0,0,0-2.95-.48v-1.22c2.07.12,5.26.18,9.59.18,4.12,0,7.3-.06,9.52-.18Z"/><path class="cls-3" d="M291.25,273.42a3.48,3.48,0,0,0,2,1v1.21c-2.42-.12-5.5-.18-9.22-.18-4.12,0-7.2.06-9.22.18v-1.21a9.43,9.43,0,0,0,3.28-.58,1.62,1.62,0,0,0,1-1.61,8.36,8.36,0,0,0-.73-2.91l-3.64-10H261.47l-1.58,4.19a20.47,20.47,0,0,0-1.7,6.73,3.44,3.44,0,0,0,1.37,3.13,8.26,8.26,0,0,0,4,1v1.21q-4.12-.18-7.52-.18c-1.86,0-3.4.06-4.61.18v-1.21q3-.56,5.21-6.37l13.84-35.49c.44,0,1.15.06,2.12.06s1.66,0,2.06-.06l14.74,38A7.59,7.59,0,0,0,291.25,273.42Zm-17-15.29-6-16.38L262,258.13Z"/><path class="cls-3" d="M333.66,233.87a6.39,6.39,0,0,0-3,1,3.77,3.77,0,0,0-1.27,2.3,24.56,24.56,0,0,0-.33,4.67v33.85l-1.46-.06-1.64.06-26.33-33.36v23.29a27.19,27.19,0,0,0,.37,5.25,3.62,3.62,0,0,0,1.58,2.43,9.84,9.84,0,0,0,3.94,1.06v1.21q-2.37-.18-6.55-.18-3.34,0-5.28.18v-1.21a6.5,6.5,0,0,0,2.94-1,3.83,3.83,0,0,0,1.28-2.31,24.56,24.56,0,0,0,.33-4.67v-27.3a12,12,0,0,0-.33-3.33,2.11,2.11,0,0,0-1.28-1.4,10.67,10.67,0,0,0-2.94-.48v-1.22q1.93.18,5.28.18c2,0,3.76-.06,5.21-.18l23.48,28.94v-19a27.45,27.45,0,0,0-.36-5.25,3.61,3.61,0,0,0-1.58-2.42,9.72,9.72,0,0,0-3.94-1.06v-1.22c1.57.12,3.76.18,6.55.18q3.39,0,5.28-.18Z"/><path class="cls-3" d="M371.15,275.6q-4.12-.18-13.9-.18-13.22,0-19.77.18v-1.21a10.24,10.24,0,0,0,2.94-.49,2.06,2.06,0,0,0,1.27-1.39,11.59,11.59,0,0,0,.34-3.34V239.08a11.51,11.51,0,0,0-.34-3.33,2.08,2.08,0,0,0-1.27-1.4,10.67,10.67,0,0,0-2.94-.48v-1.22q6.56.18,19.77.18,8.92,0,12.68-.18-.42,5-.42,9a35.77,35.77,0,0,0,.18,4.12h-1.4c-.6-4.32-1.69-7.36-3.27-9.09a8.55,8.55,0,0,0-6.67-2.61h-2.49a8.88,8.88,0,0,0-2.73.3,1.81,1.81,0,0,0-1.15,1.18,9.17,9.17,0,0,0-.31,2.82V253.4h1.94A5.61,5.61,0,0,0,358.5,251a14.64,14.64,0,0,0,2.33-5.64h1.4q-.18,2.55-.18,5.7V254q0,3.11.36,8.62H361q-1.26-8-7.4-8h-1.94V269.9a9.17,9.17,0,0,0,.31,2.82,1.79,1.79,0,0,0,1.15,1.18,8.51,8.51,0,0,0,2.73.31h3a8.87,8.87,0,0,0,6.95-2.95q2.64-2.94,3.73-10h1.39c-.12,1.33-.18,3-.18,5.09A80.38,80.38,0,0,0,371.15,275.6Z"/></g><g class="cls-4"><path class="cls-3" d="M423.92,272.62a11.23,11.23,0,0,1-3.93,3,12.73,12.73,0,0,1-5.09.91,10.28,10.28,0,0,1-6.2-1.66c-1.51-1.11-2.5-3-2.95-5.66l-1.22-6.78a26.24,26.24,0,0,0-2.13-7.29,4.37,4.37,0,0,0-4.17-2.34h-4.41v15.6a13.19,13.19,0,0,0,.37,3.72,2.37,2.37,0,0,0,1.39,1.56,11.62,11.62,0,0,0,3.33.55v1.35q-3.68-.19-10.24-.2-7.26,0-10.71.2v-1.35a11.68,11.68,0,0,0,3.28-.55,2.35,2.35,0,0,0,1.43-1.56,13.19,13.19,0,0,0,.37-3.72V234.79a13.28,13.28,0,0,0-.37-3.73,2.35,2.35,0,0,0-1.43-1.56A11.76,11.76,0,0,0,378,229V227.6c2.3.14,5.74.21,10.3.21l7.53-.07c.9-.05,1.94-.07,3.12-.07q9.34,0,14.06,3.05a9.82,9.82,0,0,1,4.71,8.75,11.83,11.83,0,0,1-3.52,8.47q-3.53,3.66-11.66,4.61c4.07.36,7.09,1.24,9.08,2.65a9.8,9.8,0,0,1,3.87,6.3l1.56,7a11.65,11.65,0,0,0,1.25,3.8,2.26,2.26,0,0,0,2,1.08,3.24,3.24,0,0,0,1.39-.4A6.31,6.31,0,0,0,423,271.8Zm-28.57-43.19a2.62,2.62,0,0,0-1.19,1.7,14.44,14.44,0,0,0-.34,3.66v16.68h2.92c3.7,0,6.24-1,7.62-2.95s2.07-4.74,2.07-8.31-.66-6.5-2-8.4S401,229,398,229A5.76,5.76,0,0,0,395.35,229.43Z"/></g></g></svg>