<svg xmlns="http://www.w3.org/2000/svg" xmlns:xlink="http://www.w3.org/1999/xlink" viewBox="0 0 448 336"><defs><style>.cls-1{fill:none;}.cls-2{fill:#3a3a3c;}.cls-3{clip-path:url(#clip-path);}.cls-4{fill:#fff;}</style><clipPath id="clip-path"><rect class="cls-1" x="137.15" y="87.33" width="171.44" height="161.33"/></clipPath></defs><title>Queue-w-thumbnail-reverse-small</title><g id="back"><rect class="cls-2" width="448" height="336" rx="28.35"/></g><g id="logo"><g id="Queue"><g class="cls-3"><g class="cls-3"><path class="cls-4" d="M272.45,87.33H233v2.54a18.27,18.27,0,0,1,18.14,20.38L238.81,215.42a59.61,59.61,0,0,1,14.85,19.84c.41.9.8,1.81,1.17,2.72l13.09-111.93a40.93,40.93,0,0,1,40.67-36.18V87.33Z"/><path class="cls-4" d="M210,223.42a29.49,29.49,0,0,1-46.35,4.4,30.73,30.73,0,0,1-2.62-3.18l0,0a.21.21,0,0,0,0-.06l-.12-.18c-.51-.74-1-1.49-1.43-2.27l-.35-.67-.14-.27c-.13-.25-.27-.5-.39-.76a25.74,25.74,0,0,1-1.09-2.59,29.35,29.35,0,0,1-1.84-10.22V119.39a29.52,29.52,0,1,1,59,0v83.16l1.19.31a59.3,59.3,0,0,1,14,6A47.85,47.85,0,0,0,233,191.71V135.25a47.91,47.91,0,0,0-43.57-47.72c-1.43-.13-2.88-.2-4.35-.2a47.92,47.92,0,0,0-47.91,47.92v56.46a47.77,47.77,0,0,0,17,36.64c.5.43,1,.85,1.54,1.26a47.72,47.72,0,0,0,29.32,10c1.47,0,2.92-.06,4.35-.19a47.65,47.65,0,0,0,27.14-11.61,42.1,42.1,0,0,0-6.58-4.39h0"/><path class="cls-4" d="M238.19,220.78A55,55,0,0,0,228,212.91a54.33,54.33,0,0,0-13.46-5.86,55.43,55.43,0,0,0-52,11.91c.17.33.34.67.53,1a21.24,21.24,0,0,0,1.29,2A46.2,46.2,0,0,1,212,219.6a46.79,46.79,0,0,1,7.7,5.19,46.21,46.21,0,0,1,15.2,23.88h18.65a54.72,54.72,0,0,0-3.87-11.58,55.4,55.4,0,0,0-11.52-16.31"/></g></g></g></g></svg>