<svg xmlns="http://www.w3.org/2000/svg" xmlns:xlink="http://www.w3.org/1999/xlink" viewBox="0 0 448 336"><defs><style>.cls-1{fill:none;}.cls-2{fill:#ed1c24;}.cls-3{clip-path:url(#clip-path);}.cls-4{fill:#fff;}</style><clipPath id="clip-path"><rect class="cls-1" x="123.3" y="67.3" width="201.41" height="201.41"/></clipPath></defs><title>Reuven-frank-w-thumbnail-reverse-small</title><g id="back"><rect class="cls-2" width="448" height="336" rx="28.35"/></g><g id="logo"><g id="Reuven_frank" data-name="Reuven frank"><g class="cls-3"><g class="cls-3"><path class="cls-2" d="M324.7,168A100.7,100.7,0,1,1,224,67.3,100.69,100.69,0,0,1,324.7,168"/><path class="cls-4" d="M280,226.84a25,25,0,0,1-12.43-21.54V180.43a24.86,24.86,0,0,0-24.86-24.86,24.87,24.87,0,1,0-.32-49.73H165a12.43,12.43,0,0,1,12.44,12.43v99.46A12.43,12.43,0,0,1,165,230.16h49.73a12.43,12.43,0,0,1-12.43-12.43v-29a4.9,4.9,0,0,1,5.6-4.85c9.53,1.32,16.16,6.24,16.16,15.17V164.89c0,8.93-6.63,13.85-16.16,15.17a4.9,4.9,0,0,1-5.6-4.84V121.38A12.43,12.43,0,0,1,214.75,109h4.44a23.48,23.48,0,0,1,16,6.21,23.15,23.15,0,0,1,0,34.19,23.67,23.67,0,0,1-4.38,3.18,23.35,23.35,0,0,1-9.89,3c-.57.05-1.15.07-1.73.07h-1.33a25.18,25.18,0,0,1,3.27.21h0a24.86,24.86,0,0,1,21.6,24.65V205.3a24.86,24.86,0,0,0,24.86,24.86h24.87A24.84,24.84,0,0,1,280,226.84"/></g></g></g></g></svg>