<svg id="Layer_1" data-name="Layer 1" xmlns="http://www.w3.org/2000/svg" viewBox="0 0 517.76 388.32"><defs><style>.cls-1{fill:#4eaeb0;}.cls-2{fill:#fff;}</style></defs><title>Artboard 13</title><rect class="cls-1" width="517.76" height="388.32" rx="32.76"/><path class="cls-2" d="M312.05,152.46V138.39a8.53,8.53,0,0,0-8.54-8.51h-112a8.53,8.53,0,0,0-8.54,8.51v72A48.62,48.62,0,0,0,231.57,259h31.86a48.51,48.51,0,0,0,40.81-22.23h3.5A29.28,29.28,0,0,0,337,207.48V181.35A29.27,29.27,0,0,0,312.05,152.46Zm-67.51,10.69a21.43,21.43,0,0,1,.94-6.64c1.91-5.75,6.58-8.39,13.14-8.39,4.79,0,8.26,1.37,10.57,4s3.52,6.74,3.52,12v4H254.6a11.16,11.16,0,0,0,.66,3.81c.67,1.64,2,2.64,4.5,2.64,3.16,0,3.82-.95,5-2.49l7.37,5.16c-2.34,4.1-6.36,5.78-12.47,5.78a15.93,15.93,0,0,1-9.76-2.86c-3.7-2.75-5.39-7.25-5.39-12.3Zm-34.27-27.1h10.06v15a9.08,9.08,0,0,1,6.84-3c6.57,0,12.33,3,12.33,13.15v21.06h-10V163.22c0-4.5-1.08-6.51-4.3-6.51-3.49,0-4.83,2.16-4.83,6.44v19.18H210.27Zm-4.69,21.21h-6v12.53c0,2.67.75,3.82,3.22,3.82h2.82v8.72h-4c-8.18,0-12.15-1.81-12.15-11.26V157.26h-4.29V148.8h4.29v-7.38h10.06v7.38h6Zm18,54.29a4.76,4.76,0,0,0,4.64-2.47l3.67,2.54,3.77,2.62a11.76,11.76,0,0,1-2.45,2.85c-2.34,2-5.51,2.91-10,2.91-9.8,0-15.16-6.18-15.16-15.16v-4.7c0-9.84,5.36-15,15.82-15a15.52,15.52,0,0,1,7.7,1.83,10.77,10.77,0,0,1,4.11,3.93l-4.11,2.86-3.4,2.37a5.05,5.05,0,0,0-4.57-2.54c-4.41,0-5.49,2.48-5.49,7.44v3C218.12,208.39,218.65,211.55,223.61,211.55Zm43.26-7.11c0,6.58-2.18,11.58-7,14a17.17,17.17,0,0,1-7.71,1.59c-10.19,0-14.76-6.18-14.76-15.56v-3.88c0-9.42,4.52-14.51,12.49-15.31.73-.07,1.48-.12,2.27-.12,9.52,0,14.75,5.17,14.75,15.43Zm22.06-22.66h-1.81c-2.47,0-3.22,1.13-3.22,3.82v.2h5v8.45h-5v25.09H273.84V194.25h-4.28V185.8h4.28v-1.48c0-9.45,4-11.26,12.14-11.26h2.95Zm29.81,25.7a11,11,0,0,1-7.28,10.31,46.82,46.82,0,0,0,.59-7.45v-39.1a11,11,0,0,1,6.69,10.11Z"/><path class="cls-2" d="M256.81,201v3c0,4.41-.54,7.57-4.69,7.57a5.87,5.87,0,0,1-1.54-.2c-2.74-.73-3.16-3.59-3.16-7.37v-3c0-3.72.6-6,2.43-7a4.83,4.83,0,0,1,2.27-.47C255.74,193.58,256.81,196.06,256.81,201Z"/><path class="cls-2" d="M262.65,161.41h-8c.27-3,1.41-4.83,4-4.83C261,156.58,262.45,157.72,262.65,161.41Z"/></svg>