<svg xmlns="http://www.w3.org/2000/svg" xmlns:xlink="http://www.w3.org/1999/xlink" viewBox="0 0 448 336"><defs><style>.cls-1{fill:none;}.cls-2{fill:#e16b42;}.cls-3{fill:url(#New_Gradient_Swatch_1);}.cls-4{clip-path:url(#clip-path);}.cls-5{fill:#fff;}</style><linearGradient id="New_Gradient_Swatch_1" x1="-112.76" y1="-86.35" x2="511.87" y2="385.42" gradientUnits="userSpaceOnUse"><stop offset="0" stop-color="#f0823f"/><stop offset="1" stop-color="#e83e39"/></linearGradient><clipPath id="clip-path"><rect class="cls-1" x="159.94" y="87.33" width="128.12" height="161.33"/></clipPath></defs><title>Top-view-w-thumbnail-reverse-small</title><g id="back"><rect class="cls-2" width="448" height="336" rx="28.35"/><rect class="cls-3" width="448" height="336" rx="28.35"/></g><g id="logo"><g id="Artwork_1" data-name="Artwork 1"><g class="cls-4"><g class="cls-4"><path class="cls-5" d="M224.06,139.51a3,3,0,0,0,1.39-.76,6.33,6.33,0,0,0,1.33-1.8,12,12,0,0,0,1-2.87,17.92,17.92,0,0,0,.42-4,27.14,27.14,0,0,0-.42-5.34,10.19,10.19,0,0,0-1.07-3.05,2.89,2.89,0,0,0-1.36-1.31,2.32,2.32,0,0,0-1.33-.14,3.6,3.6,0,0,0-1.62.87,6,6,0,0,0-1.52,2.07,14.69,14.69,0,0,0-1.11,3.36,21.34,21.34,0,0,0-.45,4.66,15.09,15.09,0,0,0,.42,3.86,9,9,0,0,0,1.13,2.67,4.21,4.21,0,0,0,1.53,1.46,2.4,2.4,0,0,0,1.62.27"/><path class="cls-5" d="M231.58,175.64a12.71,12.71,0,0,0,.7-1.2,3.06,3.06,0,0,0,.45-1.14.94.94,0,0,0-.12-.35c-.08-.16-.31-.2-.67-.13a3.83,3.83,0,0,0-1.9,1.23,13,13,0,0,0-1.85,2.53,18.79,18.79,0,0,0-1.43,3.25,11.13,11.13,0,0,0-.58,3.34,65.83,65.83,0,0,0,4.4-6Z"/><path class="cls-5" d="M224,87.33a64.06,64.06,0,0,0-64.06,64.06c0,21.63,23.93,51.47,42.54,71.4a29.42,29.42,0,0,0,43,0c18.61-19.93,42.54-49.77,42.54-71.4A64.06,64.06,0,0,0,224,87.33m-37.62,30.22a27.76,27.76,0,0,1,4.57-3q8.19-5.32,16.53-10.42,2.21-1.35,4.43-2.68l-.22.14c1.52-.67,3-1.4,4.58-2,1.13-.45,8-3.23,8.71-2.16s-2.74,3-3.36,3.41c-2.4,1.46-4.94,2.68-7.42,4a5.79,5.79,0,0,1-1.3.7l-1.38.73c-.82.44-1.52.92-2.29,1.42a7.31,7.31,0,0,0-2.22,1.84c-.82,1.19-.5,2.79-.45,4.14.15,4.08.32,8.16.4,12.25.07,3.37,1,24.9-4.62,21.7-1.53-.89-1.8-3.24-2-4.8a45.5,45.5,0,0,1,.1-7.83c.25-3.24.58-6.47.72-9.72s.06-6.49.06-9.72c0-1,0-1.93,0-2.89-3.36,2.09-6.52,4.45-9.72,6.79-1.07.79-2.63,2.53-4,2.78-3.78.73-3-2.84-1.22-4.62m21.55,49.86q-1.89,7.68-3.64,15.38-.87,3.78-1.72,7.54c-.54,2.39-.7,5.32-1.87,7.48-1.08,2-4,4.91-6.52,4.37-1.74-.37-2-2.29-2.26-3.73a246,246,0,0,0-7.28-26.66c-.63-1.9-1.29-3.79-2-5.67a11.49,11.49,0,0,1-.48-3.65c0-2.33.86-4.37,3.46-4.46,2.17-.07,2.54,2.68,3.14,4.24,1.67,4.4,3.16,8.86,4.6,13.34.72,2.24,1.42,4.49,2.13,6.74.36,1.12.71,2.24,1.07,3.36.19.58.3,2.2.94,2.44h0a.33.33,0,0,0,.27-.06c.34-.21.61-1.49.76-1.87.24-.65.48-1.3.71-2,1.38-3.94,2.38-8,3.63-12,.54-1.74,1.09-3.48,1.63-5.23.28-.87.55-1.74.82-2.61a9.93,9.93,0,0,0,.79-2.48c1.17-3.7,2.32-7.41,3.63-11.07.33-.9,1.45-4.1,2.6-2.4.83,1.21-.6,4.42-.94,5.64-1.21,4.43-2.42,8.85-3.52,13.31m9.41,10.7A35.05,35.05,0,0,0,217,182c-.18,3.18-.2,6.37-.08,9.56,0,.47,0,.95.07,1.43a12.17,12.17,0,0,1,0,2.56,3.09,3.09,0,0,1-2.38,2.82,2,2,0,0,1-1.6-.21,2.61,2.61,0,0,1-.81-1.07,4.2,4.2,0,0,1-.32-1.42c0-.51,0-.92,0-1.23,0-1.48,0-2.84.13-4.07s.18-2.48.29-3.73l.62-8.53c0-.4.09-.88.17-1.46a8,8,0,0,1,.46-1.71,3.76,3.76,0,0,1,2.08-2.25,1.55,1.55,0,0,1,1.54.22,2,2,0,0,1,.5,1.28,14.28,14.28,0,0,1-.29,4m-.79-10.55a2.87,2.87,0,1,1,2.87-2.87,2.87,2.87,0,0,1-2.87,2.87M219,144.4a7.12,7.12,0,0,1-2.69-2.68,13.86,13.86,0,0,1-1.58-4.31,28,28,0,0,1-.5-5.4,26.74,26.74,0,0,1,.53-5.23,17.4,17.4,0,0,1,1.63-4.65,12,12,0,0,1,2.86-3.6,9.17,9.17,0,0,1,4.26-2,6.28,6.28,0,0,1,4.87.6,8,8,0,0,1,2.77,3.32,14.69,14.69,0,0,1,1.24,4.57,36.29,36.29,0,0,1,.27,4.38,19.33,19.33,0,0,1-.68,5,18.23,18.23,0,0,1-2,4.69,15,15,0,0,1-3.09,3.73,8.83,8.83,0,0,1-4.11,2,5.58,5.58,0,0,1-3.82-.43M240.81,187a8.28,8.28,0,0,1-.5.79,16.41,16.41,0,0,1-1.87,2,24,24,0,0,1-2.62,2.14,24.63,24.63,0,0,1-3,1.85,11.71,11.71,0,0,1-3.09,1.12,6.76,6.76,0,0,1-4.36-.26,6,6,0,0,1-2.48-2.23,7.9,7.9,0,0,1-1.11-3,18.32,18.32,0,0,1-.25-2.75,21,21,0,0,1,1.09-6.69,24.68,24.68,0,0,1,2.78-5.77,18.5,18.5,0,0,1,3.77-4.22,9.69,9.69,0,0,1,4.06-2.05,3.82,3.82,0,0,1,2.67.34,2.36,2.36,0,0,1,1.16,2.27,7.44,7.44,0,0,1-.6,2.64,26.79,26.79,0,0,1-1.53,3.18c-.62,1.11-1.32,2.24-2.1,3.38s-1.55,2.23-2.3,3.24-1.46,1.92-2.12,2.72-1.2,1.44-1.6,1.91a4.47,4.47,0,0,0,1.46,2.27,3.16,3.16,0,0,0,2.62.4,9.94,9.94,0,0,0,2.34-.79,18.06,18.06,0,0,0,2.19-1.23c.7-.46,1.35-.92,2-1.39s1.11-.89,1.55-1.26a2.59,2.59,0,0,1,1-.6.93.93,0,0,1,.69.05.88.88,0,0,1,.4.45,1.55,1.55,0,0,1,.12.66,1.57,1.57,0,0,1-.25.84m1.75-29.33a7.23,7.23,0,0,1-1.65,2.09,3.22,3.22,0,0,1-1.38.72,1.78,1.78,0,0,1-.7,0,1.23,1.23,0,0,1-.82-.36,2.53,2.53,0,0,1-.66-1.06,8.58,8.58,0,0,1-.2-3c0-1.25,0-2.3.08-3.62.09-3.65.13-6.11.15-10.13,0-5.55-.07-11.1-.21-16.64-.08-2.8-.18-5.6-.24-8.4,0-.51,0-1-.05-1.51a13,13,0,0,1,.86-6.27,5.44,5.44,0,0,1,1.25-1.81,2.73,2.73,0,0,1,2-.73,2.19,2.19,0,0,1,1.75,1.29c.45,1.07-.27,2.61-.47,3.7a32,32,0,0,0-.65,5,25,25,0,0,0,0,2.73,21.13,21.13,0,0,1,4.28-4.19,18.41,18.41,0,0,1,6.44-2.76,5.32,5.32,0,0,1,3.5.35,3.94,3.94,0,0,1,1.91,2.22c.54,1.57.07,3.71-.29,5.29-1.24,5.3-5.18,9.36-9.89,11.86-.89.47-2.09.85-2.81.15a1.79,1.79,0,0,1,0-2.26,6.72,6.72,0,0,1,1.92-1.54c3.2-2.08,6.05-5.53,6.65-9.38a2.25,2.25,0,0,0-.51-2.14,2.31,2.31,0,0,0-2.3.07,13.83,13.83,0,0,0-5.83,4.82,18.56,18.56,0,0,0-2.28,4.47A15.92,15.92,0,0,0,242,132c.08,4.67,0,9.73.3,14.5.06.93.13,1.89.2,2.83.14,2.1.32,4.24.45,6.32a3.21,3.21,0,0,1-.37,2m23.23,1c-.14,3.69-.39,7.37-.24,11,0,.84.05,1.7.05,2.59,0,1.33,0,2.78,0,4.35a24.93,24.93,0,0,1-.39,4.49,11,11,0,0,1-1.29,3.69,4,4,0,0,1-2.73,1.94,2.32,2.32,0,0,1-1.95-.43,7.17,7.17,0,0,1-1.62-1.8,21.35,21.35,0,0,1-1.44-2.59c-.46-1-.9-1.89-1.33-2.77l-.42-.87c-.22.77-.59,1.88-1.11,3.34s-1.1,3-1.74,4.45a31.6,31.6,0,0,1-2,4c-.72,1.16-1.4,1.81-2,1.94-.82.18-1.5-.27-2.05-1.34a16.16,16.16,0,0,1-1.33-4.19,45.2,45.2,0,0,1-.7-5.61c-.14-2-.21-3.9-.21-5.64,0-1.4,0-2.8.07-4.18a19.92,19.92,0,0,1,.43-3.74,8.6,8.6,0,0,1,1.16-2.85,3.33,3.33,0,0,1,2.17-1.45q1.07-.24,1.41.24a3,3,0,0,1,.35,1.68,16.57,16.57,0,0,1-.14,2.29c-.09.56-.18,1.14-.27,1.72s-.19,1.3-.28,2.17-.13,2.1-.14,3.71a29.45,29.45,0,0,0,.23,3.79,20.93,20.93,0,0,0,.82,3.54,22.81,22.81,0,0,0,1.72-3.9c.36-1.14.7-2.4,1-3.75l.81-3.44a6.66,6.66,0,0,1,.72-1.78,2.53,2.53,0,0,1,1.79-1.17c.61-.13,1,0,1.26.25a3.37,3.37,0,0,1,.56,1.3l.53,2.06a20,20,0,0,0,.69,2.18c.28.76.6,1.51.95,2.24s.72,1.42,1.09,2.09.72,1.25,1,1.74c.14-.88.26-1.68.35-2.4s.16-1.42.2-2.09.05-1.36.05-2.07,0-1.48,0-2.33V169.2c0-2.17,0-4,.1-5.61a29.26,29.26,0,0,1,.33-3.84,6.41,6.41,0,0,1,.7-2.26,1.9,1.9,0,0,1,1.25-.94c1.45-.3,1.65.89,1.6,2.13"/><path class="cls-5" d="M224,248.67h0a9.88,9.88,0,0,1-9.88-9.88h0a2.93,2.93,0,0,1,2.93-2.93H231a2.93,2.93,0,0,1,2.93,2.93h0a9.88,9.88,0,0,1-9.88,9.88"/></g></g></g></g></svg>